<?xml version="1.0" encoding="UTF-8" standalone="no"?>
<!DOCTYPE svg PUBLIC "-//W3C//DTD SVG 1.1//EN"
 "http://www.w3.org/Graphics/SVG/1.1/DTD/svg11.dtd">
<!-- Generated by graphviz version 2.43.0 (0)
 -->
<!-- Title: docs/api/auto_moderation.h Pages: 1 -->
<svg width="652pt" height="140pt"
 viewBox="0.00 0.00 652.45 140.00" xmlns="http://www.w3.org/2000/svg" xmlns:xlink="http://www.w3.org/1999/xlink">
<g id="graph0" class="graph" transform="scale(1 1) rotate(0) translate(4 136)">
<title>docs/api/auto_moderation.h</title>
<!-- Node1 -->
<g id="node1" class="node">
<title>Node1</title>
<g id="a_node1"><a xlink:title="Generated code.">
<polygon fill="#bfbfbf" stroke="black" points="212.45,-112.5 212.45,-131.5 364.45,-131.5 364.45,-112.5 212.45,-112.5"/>
<text text-anchor="middle" x="288.45" y="-119.5" font-family="Helvetica,sans-Serif" font-size="10.00">docs/api/auto_moderation.h</text>
</a>
</g>
</g>
<!-- Node2 -->
<g id="node2" class="node">
<title>Node2</title>
<g id="a_node2"><a xlink:title=" ">
<polygon fill="none" stroke="#bfbfbf" points="150.45,-0.5 150.45,-19.5 206.45,-19.5 206.45,-0.5 150.45,-0.5"/>
<text text-anchor="middle" x="178.45" y="-7.5" font-family="Helvetica,sans-Serif" font-size="10.00">stddef.h</text>
</a>
</g>
</g>
<!-- Node1&#45;&gt;Node2 -->
<g id="edge1" class="edge">
<title>Node1&#45;&gt;Node2</title>
<path fill="none" stroke="midnightblue" d="M212.36,-119.49C138.6,-116.22 34.2,-106.21 8.45,-76 -30,-30.87 79.25,-16.98 140.34,-12.78"/>
<polygon fill="midnightblue" stroke="midnightblue" points="140.66,-16.26 150.42,-12.14 140.22,-9.28 140.66,-16.26"/>
</g>
<!-- Node3 -->
<g id="node3" class="node">
<title>Node3</title>
<g id="a_node3"><a xlink:title=" ">
<polygon fill="none" stroke="#bfbfbf" points="17.45,-56.5 17.45,-75.5 79.45,-75.5 79.45,-56.5 17.45,-56.5"/>
<text text-anchor="middle" x="48.45" y="-63.5" font-family="Helvetica,sans-Serif" font-size="10.00">stdbool.h</text>
</a>
</g>
</g>
<!-- Node1&#45;&gt;Node3 -->
<g id="edge2" class="edge">
<title>Node1&#45;&gt;Node3</title>
<path fill="none" stroke="midnightblue" d="M250.42,-112.44C206.56,-102.57 134.69,-86.4 89.56,-76.25"/>
<polygon fill="midnightblue" stroke="midnightblue" points="90.33,-72.83 79.8,-74.05 88.79,-79.66 90.33,-72.83"/>
</g>
<!-- Node4 -->
<g id="node4" class="node">
<title>Node4</title>
<g id="a_node4"><a xlink:title=" ">
<polygon fill="none" stroke="#bfbfbf" points="97.95,-56.5 97.95,-75.5 162.95,-75.5 162.95,-56.5 97.95,-56.5"/>
<text text-anchor="middle" x="130.45" y="-63.5" font-family="Helvetica,sans-Serif" font-size="10.00">inttypes.h</text>
</a>
</g>
</g>
<!-- Node1&#45;&gt;Node4 -->
<g id="edge3" class="edge">
<title>Node1&#45;&gt;Node4</title>
<path fill="none" stroke="midnightblue" d="M263.42,-112.44C236.84,-103.36 194.64,-88.94 164.93,-78.78"/>
<polygon fill="midnightblue" stroke="midnightblue" points="165.97,-75.44 155.37,-75.52 163.7,-82.06 165.97,-75.44"/>
</g>
<!-- Node5 -->
<g id="node5" class="node">
<title>Node5</title>
<g id="a_node5"><a xlink:title=" ">
<polygon fill="none" stroke="#bfbfbf" points="180.95,-56.5 180.95,-75.5 235.95,-75.5 235.95,-56.5 180.95,-56.5"/>
<text text-anchor="middle" x="208.45" y="-63.5" font-family="Helvetica,sans-Serif" font-size="10.00">carray.h</text>
</a>
</g>
</g>
<!-- Node1&#45;&gt;Node5 -->
<g id="edge4" class="edge">
<title>Node1&#45;&gt;Node5</title>
<path fill="none" stroke="midnightblue" d="M275.6,-112.32C263.24,-103.98 244.32,-91.21 229.72,-81.35"/>
<polygon fill="midnightblue" stroke="midnightblue" points="231.52,-78.35 221.27,-75.65 227.6,-84.15 231.52,-78.35"/>
</g>
<!-- Node6 -->
<g id="node6" class="node">
<title>Node6</title>
<g id="a_node6"><a xlink:href="cog-utils_8h_source.html" target="_top" xlink:title=" ">
<polygon fill="none" stroke="red" points="254.45,-56.5 254.45,-75.5 322.45,-75.5 322.45,-56.5 254.45,-56.5"/>
<text text-anchor="middle" x="288.45" y="-63.5" font-family="Helvetica,sans-Serif" font-size="10.00">cog&#45;utils.h</text>
</a>
</g>
</g>
<!-- Node1&#45;&gt;Node6 -->
<g id="edge5" class="edge">
<title>Node1&#45;&gt;Node6</title>
<path fill="none" stroke="midnightblue" d="M288.45,-112.08C288.45,-105.01 288.45,-94.86 288.45,-85.99"/>
<polygon fill="midnightblue" stroke="midnightblue" points="291.95,-85.75 288.45,-75.75 284.95,-85.75 291.95,-85.75"/>
</g>
<!-- Node9 -->
<g id="node7" class="node">
<title>Node9</title>
<g id="a_node7"><a xlink:href="types_8h.html" target="_top" xlink:title=" ">
<polygon fill="none" stroke="red" points="340.95,-56.5 340.95,-75.5 393.95,-75.5 393.95,-56.5 340.95,-56.5"/>
<text text-anchor="middle" x="367.45" y="-63.5" font-family="Helvetica,sans-Serif" font-size="10.00">types.h</text>
</a>
</g>
</g>
<!-- Node1&#45;&gt;Node9 -->
<g id="edge6" class="edge">
<title>Node1&#45;&gt;Node9</title>
<path fill="none" stroke="midnightblue" d="M301.15,-112.32C313.35,-103.98 332.03,-91.21 346.46,-81.35"/>
<polygon fill="midnightblue" stroke="midnightblue" points="348.51,-84.19 354.79,-75.65 344.56,-78.41 348.51,-84.19"/>
</g>
<!-- Node10 -->
<g id="node8" class="node">
<title>Node10</title>
<g id="a_node8"><a xlink:title=" ">
<polygon fill="none" stroke="#bfbfbf" points="412.45,-56.5 412.45,-75.5 462.45,-75.5 462.45,-56.5 412.45,-56.5"/>
<text text-anchor="middle" x="437.45" y="-63.5" font-family="Helvetica,sans-Serif" font-size="10.00">jsmn.h</text>
</a>
</g>
</g>
<!-- Node1&#45;&gt;Node10 -->
<g id="edge8" class="edge">
<title>Node1&#45;&gt;Node10</title>
<path fill="none" stroke="midnightblue" d="M312.06,-112.44C336.91,-103.44 376.23,-89.19 404.21,-79.05"/>
<polygon fill="midnightblue" stroke="midnightblue" points="405.74,-82.21 413.95,-75.52 403.36,-75.63 405.74,-82.21"/>
</g>
<!-- Node11 -->
<g id="node9" class="node">
<title>Node11</title>
<g id="a_node9"><a xlink:title=" ">
<polygon fill="none" stroke="#bfbfbf" points="480.95,-56.5 480.95,-75.5 551.95,-75.5 551.95,-56.5 480.95,-56.5"/>
<text text-anchor="middle" x="516.45" y="-63.5" font-family="Helvetica,sans-Serif" font-size="10.00">jsmn&#45;find.h</text>
</a>
</g>
</g>
<!-- Node1&#45;&gt;Node11 -->
<g id="edge9" class="edge">
<title>Node1&#45;&gt;Node11</title>
<path fill="none" stroke="midnightblue" d="M324.58,-112.44C364.22,-103.06 427.92,-87.97 470.94,-77.78"/>
<polygon fill="midnightblue" stroke="midnightblue" points="471.95,-81.14 480.87,-75.43 470.33,-74.33 471.95,-81.14"/>
</g>
<!-- Node12 -->
<g id="node10" class="node">
<title>Node12</title>
<g id="a_node10"><a xlink:title=" ">
<polygon fill="none" stroke="#bfbfbf" points="570.45,-56.5 570.45,-75.5 644.45,-75.5 644.45,-56.5 570.45,-56.5"/>
<text text-anchor="middle" x="607.45" y="-63.5" font-family="Helvetica,sans-Serif" font-size="10.00">json&#45;build.h</text>
</a>
</g>
</g>
<!-- Node1&#45;&gt;Node12 -->
<g id="edge10" class="edge">
<title>Node1&#45;&gt;Node12</title>
<path fill="none" stroke="midnightblue" d="M343.18,-112.47C396.2,-104.1 479.14,-90.71 560.41,-76.15"/>
<polygon fill="midnightblue" stroke="midnightblue" points="561.09,-79.58 570.31,-74.37 559.85,-72.69 561.09,-79.58"/>
</g>
<!-- Node9&#45;&gt;Node2 -->
<g id="edge7" class="edge">
<title>Node9&#45;&gt;Node2</title>
<path fill="none" stroke="midnightblue" d="M340.77,-57.38C308.31,-48.1 253.29,-32.38 216.42,-21.85"/>
<polygon fill="midnightblue" stroke="midnightblue" points="217.11,-18.41 206.54,-19.02 215.19,-25.14 217.11,-18.41"/>
</g>
</g>
</svg>
