<?xml version="1.0" encoding="UTF-8" standalone="no"?>
<!DOCTYPE svg PUBLIC "-//W3C//DTD SVG 1.1//EN"
 "http://www.w3.org/Graphics/SVG/1.1/DTD/svg11.dtd">
<!-- Generated by graphviz version 2.43.0 (0)
 -->
<!-- Title: include/discord.h Pages: 1 -->
<svg width="2220pt" height="140pt"
 viewBox="0.00 0.00 2219.50 140.00" xmlns="http://www.w3.org/2000/svg" xmlns:xlink="http://www.w3.org/1999/xlink">
<g id="graph0" class="graph" transform="scale(1 1) rotate(0) translate(4 136)">
<title>include/discord.h</title>
<!-- Node1 -->
<g id="node1" class="node">
<title>Node1</title>
<g id="a_node1"><a xlink:title="Public functions and datatypes.">
<polygon fill="#bfbfbf" stroke="black" points="1007,-112.5 1007,-131.5 1106,-131.5 1106,-112.5 1007,-112.5"/>
<text text-anchor="middle" x="1056.5" y="-119.5" font-family="Helvetica,sans-Serif" font-size="10.00">include/discord.h</text>
</a>
</g>
</g>
<!-- Node2 -->
<g id="node2" class="node">
<title>Node2</title>
<g id="a_node2"><a xlink:title=" ">
<polygon fill="none" stroke="#bfbfbf" points="0,-56.5 0,-75.5 65,-75.5 65,-56.5 0,-56.5"/>
<text text-anchor="middle" x="32.5" y="-63.5" font-family="Helvetica,sans-Serif" font-size="10.00">inttypes.h</text>
</a>
</g>
</g>
<!-- Node1&#45;&gt;Node2 -->
<g id="edge1" class="edge">
<title>Node1&#45;&gt;Node2</title>
<path fill="none" stroke="midnightblue" d="M1006.99,-121.22C863.17,-121.31 433.19,-117.79 79.5,-76 78.03,-75.83 76.54,-75.63 75.03,-75.42"/>
<polygon fill="midnightblue" stroke="midnightblue" points="75.44,-71.95 65.02,-73.85 74.36,-78.86 75.44,-71.95"/>
</g>
<!-- Node3 -->
<g id="node3" class="node">
<title>Node3</title>
<g id="a_node3"><a xlink:title=" ">
<polygon fill="none" stroke="#bfbfbf" points="216.5,-0.5 216.5,-19.5 278.5,-19.5 278.5,-0.5 216.5,-0.5"/>
<text text-anchor="middle" x="247.5" y="-7.5" font-family="Helvetica,sans-Serif" font-size="10.00">stdbool.h</text>
</a>
</g>
</g>
<!-- Node1&#45;&gt;Node3 -->
<g id="edge2" class="edge">
<title>Node1&#45;&gt;Node3</title>
<path fill="none" stroke="midnightblue" d="M1006.95,-120.51C816.89,-118.4 143.6,-108.62 112.5,-76 81.01,-42.98 156.06,-24.69 206.43,-16.45"/>
<polygon fill="midnightblue" stroke="midnightblue" points="207.1,-19.89 216.45,-14.89 206.03,-12.97 207.1,-19.89"/>
</g>
<!-- Node4 -->
<g id="node4" class="node">
<title>Node4</title>
<g id="a_node4"><a xlink:href="error_8h.html" target="_top" xlink:title=" ">
<polygon fill="none" stroke="black" points="121.5,-56.5 121.5,-75.5 169.5,-75.5 169.5,-56.5 121.5,-56.5"/>
<text text-anchor="middle" x="145.5" y="-63.5" font-family="Helvetica,sans-Serif" font-size="10.00">error.h</text>
</a>
</g>
</g>
<!-- Node1&#45;&gt;Node4 -->
<g id="edge3" class="edge">
<title>Node1&#45;&gt;Node4</title>
<path fill="none" stroke="midnightblue" d="M1006.73,-119.8C845.81,-115.73 340.77,-101.2 179.5,-76 179.4,-75.98 179.3,-75.97 179.19,-75.95"/>
<polygon fill="midnightblue" stroke="midnightblue" points="180.01,-72.55 169.51,-74.02 178.63,-79.41 180.01,-72.55"/>
</g>
<!-- Node5 -->
<g id="node5" class="node">
<title>Node5</title>
<g id="a_node5"><a xlink:href="types_8h.html" target="_top" xlink:title=" ">
<polygon fill="none" stroke="red" points="188,-56.5 188,-75.5 241,-75.5 241,-56.5 188,-56.5"/>
<text text-anchor="middle" x="214.5" y="-63.5" font-family="Helvetica,sans-Serif" font-size="10.00">types.h</text>
</a>
</g>
</g>
<!-- Node1&#45;&gt;Node5 -->
<g id="edge4" class="edge">
<title>Node1&#45;&gt;Node5</title>
<path fill="none" stroke="midnightblue" d="M1006.64,-121.48C881.11,-121.99 541.95,-119.06 251.02,-75.74"/>
<polygon fill="midnightblue" stroke="midnightblue" points="251.53,-72.28 241.12,-74.25 250.49,-79.2 251.53,-72.28"/>
</g>
<!-- Node8 -->
<g id="node6" class="node">
<title>Node8</title>
<g id="a_node6"><a xlink:href="concord-once_8h.html" target="_top" xlink:title="Initialized once.">
<polygon fill="none" stroke="black" points="259,-56.5 259,-75.5 350,-75.5 350,-56.5 259,-56.5"/>
<text text-anchor="middle" x="304.5" y="-63.5" font-family="Helvetica,sans-Serif" font-size="10.00">concord&#45;once.h</text>
</a>
</g>
</g>
<!-- Node1&#45;&gt;Node8 -->
<g id="edge5" class="edge">
<title>Node1&#45;&gt;Node8</title>
<path fill="none" stroke="midnightblue" d="M1006.91,-119.46C894.02,-115.61 609.01,-103.85 360.03,-75.94"/>
<polygon fill="midnightblue" stroke="midnightblue" points="360.4,-72.46 350.07,-74.81 359.61,-79.41 360.4,-72.46"/>
</g>
<!-- Node9 -->
<g id="node7" class="node">
<title>Node9</title>
<g id="a_node7"><a xlink:href="io__poller_8h_source.html" target="_top" xlink:title=" ">
<polygon fill="none" stroke="red" points="368,-56.5 368,-75.5 435,-75.5 435,-56.5 368,-56.5"/>
<text text-anchor="middle" x="401.5" y="-63.5" font-family="Helvetica,sans-Serif" font-size="10.00">io_poller.h</text>
</a>
</g>
</g>
<!-- Node1&#45;&gt;Node9 -->
<g id="edge6" class="edge">
<title>Node1&#45;&gt;Node9</title>
<path fill="none" stroke="midnightblue" d="M1006.68,-119.58C903.71,-116.16 659.84,-105.56 445.41,-75.93"/>
<polygon fill="midnightblue" stroke="midnightblue" points="445.62,-72.42 435.23,-74.5 444.65,-79.35 445.62,-72.42"/>
</g>
<!-- Node11 -->
<g id="node8" class="node">
<title>Node11</title>
<g id="a_node8"><a xlink:title=" ">
<polygon fill="none" stroke="#bfbfbf" points="453.5,-56.5 453.5,-75.5 553.5,-75.5 553.5,-56.5 453.5,-56.5"/>
<text text-anchor="middle" x="503.5" y="-63.5" font-family="Helvetica,sans-Serif" font-size="10.00">discord_codecs.h</text>
</a>
</g>
</g>
<!-- Node1&#45;&gt;Node11 -->
<g id="edge8" class="edge">
<title>Node1&#45;&gt;Node11</title>
<path fill="none" stroke="midnightblue" d="M1006.72,-117.41C917.64,-110.78 725.2,-95.49 563.5,-76 563.4,-75.99 563.3,-75.98 563.2,-75.96"/>
<polygon fill="midnightblue" stroke="midnightblue" points="563.92,-72.53 553.56,-74.73 563.04,-79.47 563.92,-72.53"/>
</g>
<!-- Node12 -->
<g id="node9" class="node">
<title>Node12</title>
<g id="a_node9"><a xlink:href="discord-response_8h.html" target="_top" xlink:title="Generic macros for initializing a discord_response and return handles.">
<polygon fill="none" stroke="black" points="572,-56.5 572,-75.5 681,-75.5 681,-56.5 572,-56.5"/>
<text text-anchor="middle" x="626.5" y="-63.5" font-family="Helvetica,sans-Serif" font-size="10.00">discord&#45;response.h</text>
</a>
</g>
</g>
<!-- Node1&#45;&gt;Node12 -->
<g id="edge9" class="edge">
<title>Node1&#45;&gt;Node12</title>
<path fill="none" stroke="midnightblue" d="M1006.74,-115.16C938.22,-107.06 810.7,-91.75 691.35,-76.09"/>
<polygon fill="midnightblue" stroke="midnightblue" points="691.68,-72.61 681.3,-74.77 690.76,-79.55 691.68,-72.61"/>
</g>
<!-- Node13 -->
<g id="node10" class="node">
<title>Node13</title>
<g id="a_node10"><a xlink:href="include_2audit__log_8h.html" target="_top" xlink:title="Audit Log public functions and datatypes.">
<polygon fill="none" stroke="black" points="699,-56.5 699,-75.5 770,-75.5 770,-56.5 699,-56.5"/>
<text text-anchor="middle" x="734.5" y="-63.5" font-family="Helvetica,sans-Serif" font-size="10.00">audit_log.h</text>
</a>
</g>
</g>
<!-- Node1&#45;&gt;Node13 -->
<g id="edge10" class="edge">
<title>Node1&#45;&gt;Node13</title>
<path fill="none" stroke="midnightblue" d="M1006.87,-113.49C953.43,-105.29 865.66,-91.45 780.21,-76.07"/>
<polygon fill="midnightblue" stroke="midnightblue" points="780.8,-72.63 770.34,-74.29 779.56,-79.51 780.8,-72.63"/>
</g>
<!-- Node14 -->
<g id="node11" class="node">
<title>Node14</title>
<g id="a_node11"><a xlink:href="include_2auto__moderation_8h.html" target="_top" xlink:title="Auto Moderation public functions and datatypes.">
<polygon fill="none" stroke="black" points="788,-56.5 788,-75.5 897,-75.5 897,-56.5 788,-56.5"/>
<text text-anchor="middle" x="842.5" y="-63.5" font-family="Helvetica,sans-Serif" font-size="10.00">auto_moderation.h</text>
</a>
</g>
</g>
<!-- Node1&#45;&gt;Node14 -->
<g id="edge11" class="edge">
<title>Node1&#45;&gt;Node14</title>
<path fill="none" stroke="midnightblue" d="M1022.59,-112.44C985.65,-103.12 926.45,-88.18 886.08,-78"/>
<polygon fill="midnightblue" stroke="midnightblue" points="886.8,-74.57 876.25,-75.52 885.09,-81.36 886.8,-74.57"/>
</g>
<!-- Node15 -->
<g id="node12" class="node">
<title>Node15</title>
<g id="a_node12"><a xlink:href="include_2invite_8h.html" target="_top" xlink:title="Invite public functions and datatypes.">
<polygon fill="none" stroke="black" points="915,-56.5 915,-75.5 968,-75.5 968,-56.5 915,-56.5"/>
<text text-anchor="middle" x="941.5" y="-63.5" font-family="Helvetica,sans-Serif" font-size="10.00">invite.h</text>
</a>
</g>
</g>
<!-- Node1&#45;&gt;Node15 -->
<g id="edge12" class="edge">
<title>Node1&#45;&gt;Node15</title>
<path fill="none" stroke="midnightblue" d="M1038.28,-112.44C1019.6,-103.68 990.34,-89.94 968.88,-79.86"/>
<polygon fill="midnightblue" stroke="midnightblue" points="970.18,-76.6 959.64,-75.52 967.2,-82.93 970.18,-76.6"/>
</g>
<!-- Node16 -->
<g id="node13" class="node">
<title>Node16</title>
<g id="a_node13"><a xlink:href="include_2channel_8h.html" target="_top" xlink:title="Channel public functions and datatypes.">
<polygon fill="none" stroke="black" points="986.5,-56.5 986.5,-75.5 1050.5,-75.5 1050.5,-56.5 986.5,-56.5"/>
<text text-anchor="middle" x="1018.5" y="-63.5" font-family="Helvetica,sans-Serif" font-size="10.00">channel.h</text>
</a>
</g>
</g>
<!-- Node1&#45;&gt;Node16 -->
<g id="edge13" class="edge">
<title>Node1&#45;&gt;Node16</title>
<path fill="none" stroke="midnightblue" d="M1050.23,-112.08C1044.86,-104.46 1036.98,-93.26 1030.42,-83.94"/>
<polygon fill="midnightblue" stroke="midnightblue" points="1033.28,-81.91 1024.66,-75.75 1027.55,-85.94 1033.28,-81.91"/>
</g>
<!-- Node17 -->
<g id="node14" class="node">
<title>Node17</title>
<g id="a_node14"><a xlink:href="include_2emoji_8h.html" target="_top" xlink:title="Emoji public functions and datatypes.">
<polygon fill="none" stroke="black" points="1069,-56.5 1069,-75.5 1122,-75.5 1122,-56.5 1069,-56.5"/>
<text text-anchor="middle" x="1095.5" y="-63.5" font-family="Helvetica,sans-Serif" font-size="10.00">emoji.h</text>
</a>
</g>
</g>
<!-- Node1&#45;&gt;Node17 -->
<g id="edge14" class="edge">
<title>Node1&#45;&gt;Node17</title>
<path fill="none" stroke="midnightblue" d="M1062.94,-112.08C1068.45,-104.46 1076.53,-93.26 1083.26,-83.94"/>
<polygon fill="midnightblue" stroke="midnightblue" points="1086.16,-85.91 1089.18,-75.75 1080.49,-81.81 1086.16,-85.91"/>
</g>
<!-- Node18 -->
<g id="node15" class="node">
<title>Node18</title>
<g id="a_node15"><a xlink:href="include_2guild_8h.html" target="_top" xlink:title="Guild public functions and datatypes.">
<polygon fill="none" stroke="black" points="1140.5,-56.5 1140.5,-75.5 1190.5,-75.5 1190.5,-56.5 1140.5,-56.5"/>
<text text-anchor="middle" x="1165.5" y="-63.5" font-family="Helvetica,sans-Serif" font-size="10.00">guild.h</text>
</a>
</g>
</g>
<!-- Node1&#45;&gt;Node18 -->
<g id="edge15" class="edge">
<title>Node1&#45;&gt;Node18</title>
<path fill="none" stroke="midnightblue" d="M1074.01,-112.32C1091.57,-103.62 1118.83,-90.12 1139.03,-80.11"/>
<polygon fill="midnightblue" stroke="midnightblue" points="1140.62,-83.23 1148.03,-75.65 1137.52,-76.96 1140.62,-83.23"/>
</g>
<!-- Node19 -->
<g id="node16" class="node">
<title>Node19</title>
<g id="a_node16"><a xlink:href="include_2guild__scheduled__event_8h.html" target="_top" xlink:title="Guild Scheduled Event public functions and datatypes.">
<polygon fill="none" stroke="black" points="1209,-56.5 1209,-75.5 1346,-75.5 1346,-56.5 1209,-56.5"/>
<text text-anchor="middle" x="1277.5" y="-63.5" font-family="Helvetica,sans-Serif" font-size="10.00">guild_scheduled_event.h</text>
</a>
</g>
</g>
<!-- Node1&#45;&gt;Node19 -->
<g id="edge16" class="edge">
<title>Node1&#45;&gt;Node19</title>
<path fill="none" stroke="midnightblue" d="M1091.52,-112.44C1129.75,-103.1 1191.07,-88.12 1232.76,-77.93"/>
<polygon fill="midnightblue" stroke="midnightblue" points="1233.76,-81.29 1242.65,-75.52 1232.1,-74.49 1233.76,-81.29"/>
</g>
<!-- Node20 -->
<g id="node17" class="node">
<title>Node20</title>
<g id="a_node17"><a xlink:href="include_2guild__template_8h.html" target="_top" xlink:title="Guild Template public functions and datatypes.">
<polygon fill="none" stroke="black" points="1364,-56.5 1364,-75.5 1463,-75.5 1463,-56.5 1364,-56.5"/>
<text text-anchor="middle" x="1413.5" y="-63.5" font-family="Helvetica,sans-Serif" font-size="10.00">guild_template.h</text>
</a>
</g>
</g>
<!-- Node1&#45;&gt;Node20 -->
<g id="edge17" class="edge">
<title>Node1&#45;&gt;Node20</title>
<path fill="none" stroke="midnightblue" d="M1106.24,-113.58C1163.5,-105.03 1260.67,-90.47 1353.68,-76.27"/>
<polygon fill="midnightblue" stroke="midnightblue" points="1354.47,-79.69 1363.83,-74.72 1353.41,-72.77 1354.47,-79.69"/>
</g>
<!-- Node21 -->
<g id="node18" class="node">
<title>Node21</title>
<g id="a_node18"><a xlink:href="include_2user_8h.html" target="_top" xlink:title="User public functions and datatypes.">
<polygon fill="none" stroke="black" points="1481.5,-56.5 1481.5,-75.5 1527.5,-75.5 1527.5,-56.5 1481.5,-56.5"/>
<text text-anchor="middle" x="1504.5" y="-63.5" font-family="Helvetica,sans-Serif" font-size="10.00">user.h</text>
</a>
</g>
</g>
<!-- Node1&#45;&gt;Node21 -->
<g id="edge18" class="edge">
<title>Node1&#45;&gt;Node21</title>
<path fill="none" stroke="midnightblue" d="M1106.21,-118.3C1182.79,-113.57 1334.31,-101.87 1471.35,-75.93"/>
<polygon fill="midnightblue" stroke="midnightblue" points="1472.03,-79.37 1481.19,-74.04 1470.71,-72.49 1472.03,-79.37"/>
</g>
<!-- Node22 -->
<g id="node19" class="node">
<title>Node22</title>
<g id="a_node19"><a xlink:href="include_2voice_8h.html" target="_top" xlink:title="Voice public functions and datatypes.">
<polygon fill="none" stroke="black" points="1545.5,-56.5 1545.5,-75.5 1597.5,-75.5 1597.5,-56.5 1545.5,-56.5"/>
<text text-anchor="middle" x="1571.5" y="-63.5" font-family="Helvetica,sans-Serif" font-size="10.00">voice.h</text>
</a>
</g>
</g>
<!-- Node1&#45;&gt;Node22 -->
<g id="edge19" class="edge">
<title>Node1&#45;&gt;Node22</title>
<path fill="none" stroke="midnightblue" d="M1106.25,-118.93C1192,-114.8 1373.23,-103.6 1535.08,-75.99"/>
<polygon fill="midnightblue" stroke="midnightblue" points="1535.97,-79.39 1545.22,-74.23 1534.77,-72.49 1535.97,-79.39"/>
</g>
<!-- Node23 -->
<g id="node20" class="node">
<title>Node23</title>
<g id="a_node20"><a xlink:href="include_2webhook_8h.html" target="_top" xlink:title="Webhook public functions and datatypes.">
<polygon fill="none" stroke="black" points="1615.5,-56.5 1615.5,-75.5 1685.5,-75.5 1685.5,-56.5 1615.5,-56.5"/>
<text text-anchor="middle" x="1650.5" y="-63.5" font-family="Helvetica,sans-Serif" font-size="10.00">webhook.h</text>
</a>
</g>
</g>
<!-- Node1&#45;&gt;Node23 -->
<g id="edge20" class="edge">
<title>Node1&#45;&gt;Node23</title>
<path fill="none" stroke="midnightblue" d="M1106.02,-118.94C1200.96,-114.57 1415.27,-102.61 1604.87,-76.08"/>
<polygon fill="midnightblue" stroke="midnightblue" points="1605.61,-79.51 1615.02,-74.64 1604.63,-72.58 1605.61,-79.51"/>
</g>
<!-- Node24 -->
<g id="node21" class="node">
<title>Node24</title>
<g id="a_node21"><a xlink:href="include_2gateway_8h.html" target="_top" xlink:title="Gateway public functions and datatypes.">
<polygon fill="none" stroke="black" points="1703.5,-56.5 1703.5,-75.5 1769.5,-75.5 1769.5,-56.5 1703.5,-56.5"/>
<text text-anchor="middle" x="1736.5" y="-63.5" font-family="Helvetica,sans-Serif" font-size="10.00">gateway.h</text>
</a>
</g>
</g>
<!-- Node1&#45;&gt;Node24 -->
<g id="edge21" class="edge">
<title>Node1&#45;&gt;Node24</title>
<path fill="none" stroke="midnightblue" d="M1106.39,-119.87C1212.63,-116.94 1469.16,-107.14 1693.14,-76"/>
<polygon fill="midnightblue" stroke="midnightblue" points="1693.69,-79.46 1703.11,-74.6 1692.72,-72.53 1693.69,-79.46"/>
</g>
<!-- Node25 -->
<g id="node22" class="node">
<title>Node25</title>
<g id="a_node22"><a xlink:href="include_2oauth2_8h.html" target="_top" xlink:title="OAuth2 public functions and datatypes.">
<polygon fill="none" stroke="black" points="1788,-56.5 1788,-75.5 1847,-75.5 1847,-56.5 1788,-56.5"/>
<text text-anchor="middle" x="1817.5" y="-63.5" font-family="Helvetica,sans-Serif" font-size="10.00">oauth2.h</text>
</a>
</g>
</g>
<!-- Node1&#45;&gt;Node25 -->
<g id="edge22" class="edge">
<title>Node1&#45;&gt;Node25</title>
<path fill="none" stroke="midnightblue" d="M1106.25,-120.71C1222.32,-119.43 1520.08,-112.67 1777.86,-75.82"/>
<polygon fill="midnightblue" stroke="midnightblue" points="1778.39,-79.28 1787.79,-74.39 1777.39,-72.36 1778.39,-79.28"/>
</g>
<!-- Node26 -->
<g id="node23" class="node">
<title>Node26</title>
<g id="a_node23"><a xlink:href="application__command_8h.html" target="_top" xlink:title="Application Command public functions and datatypes.">
<polygon fill="none" stroke="black" points="1865.5,-56.5 1865.5,-75.5 1999.5,-75.5 1999.5,-56.5 1865.5,-56.5"/>
<text text-anchor="middle" x="1932.5" y="-63.5" font-family="Helvetica,sans-Serif" font-size="10.00">application_command.h</text>
</a>
</g>
</g>
<!-- Node1&#45;&gt;Node26 -->
<g id="edge23" class="edge">
<title>Node1&#45;&gt;Node26</title>
<path fill="none" stroke="midnightblue" d="M1106.19,-119.27C1230.5,-114.72 1565.13,-101.05 1855.09,-76.07"/>
<polygon fill="midnightblue" stroke="midnightblue" points="1855.73,-79.53 1865.39,-75.18 1855.12,-72.55 1855.73,-79.53"/>
</g>
<!-- Node27 -->
<g id="node24" class="node">
<title>Node27</title>
<g id="a_node24"><a xlink:href="interaction_8h.html" target="_top" xlink:title="Interaciton public functions and datatypes.">
<polygon fill="none" stroke="black" points="2017.5,-56.5 2017.5,-75.5 2095.5,-75.5 2095.5,-56.5 2017.5,-56.5"/>
<text text-anchor="middle" x="2056.5" y="-63.5" font-family="Helvetica,sans-Serif" font-size="10.00">interaction.h</text>
</a>
</g>
</g>
<!-- Node1&#45;&gt;Node27 -->
<g id="edge24" class="edge">
<title>Node1&#45;&gt;Node27</title>
<path fill="none" stroke="midnightblue" d="M1106.25,-121.06C1246.5,-120.73 1657.1,-116.21 2007.2,-75.98"/>
<polygon fill="midnightblue" stroke="midnightblue" points="2007.75,-79.44 2017.27,-74.81 2006.94,-72.49 2007.75,-79.44"/>
</g>
<!-- Node28 -->
<g id="node25" class="node">
<title>Node28</title>
<g id="a_node25"><a xlink:href="discord-events_8h.html" target="_top" xlink:title="Listen, react and trigger Discord Gateway events.">
<polygon fill="none" stroke="black" points="2113.5,-56.5 2113.5,-75.5 2211.5,-75.5 2211.5,-56.5 2113.5,-56.5"/>
<text text-anchor="middle" x="2162.5" y="-63.5" font-family="Helvetica,sans-Serif" font-size="10.00">discord&#45;events.h</text>
</a>
</g>
</g>
<!-- Node1&#45;&gt;Node28 -->
<g id="edge25" class="edge">
<title>Node1&#45;&gt;Node28</title>
<path fill="none" stroke="midnightblue" d="M1106.01,-120.82C1255.18,-119.88 1713.5,-113.93 2103.13,-76.02"/>
<polygon fill="midnightblue" stroke="midnightblue" points="2103.58,-79.49 2113.19,-75.03 2102.89,-72.53 2103.58,-79.49"/>
</g>
<!-- Node9&#45;&gt;Node3 -->
<g id="edge7" class="edge">
<title>Node9&#45;&gt;Node3</title>
<path fill="none" stroke="midnightblue" d="M377.1,-56.44C351.3,-47.4 310.42,-33.06 281.48,-22.92"/>
<polygon fill="midnightblue" stroke="midnightblue" points="282.38,-19.52 271.79,-19.52 280.07,-26.13 282.38,-19.52"/>
</g>
</g>
</svg>
