<?xml version="1.0" encoding="UTF-8" standalone="no"?>
<!DOCTYPE svg PUBLIC "-//W3C//DTD SVG 1.1//EN"
 "http://www.w3.org/Graphics/SVG/1.1/DTD/svg11.dtd">
<!-- Generated by graphviz version 2.43.0 (0)
 -->
<!-- Title: include/discord.h Pages: 1 -->
<svg width="2142pt" height="140pt"
 viewBox="0.00 0.00 2141.50 140.00" xmlns="http://www.w3.org/2000/svg" xmlns:xlink="http://www.w3.org/1999/xlink">
<g id="graph0" class="graph" transform="scale(1 1) rotate(0) translate(4 136)">
<title>include/discord.h</title>
<!-- Node1 -->
<g id="node1" class="node">
<title>Node1</title>
<g id="a_node1"><a xlink:title="Public functions and datatypes.">
<polygon fill="#bfbfbf" stroke="black" points="969,-112.5 969,-131.5 1068,-131.5 1068,-112.5 969,-112.5"/>
<text text-anchor="middle" x="1018.5" y="-119.5" font-family="Helvetica,sans-Serif" font-size="10.00">include/discord.h</text>
</a>
</g>
</g>
<!-- Node2 -->
<g id="node2" class="node">
<title>Node2</title>
<g id="a_node2"><a xlink:title=" ">
<polygon fill="none" stroke="#bfbfbf" points="0,-56.5 0,-75.5 65,-75.5 65,-56.5 0,-56.5"/>
<text text-anchor="middle" x="32.5" y="-63.5" font-family="Helvetica,sans-Serif" font-size="10.00">inttypes.h</text>
</a>
</g>
</g>
<!-- Node1&#45;&gt;Node2 -->
<g id="edge1" class="edge">
<title>Node1&#45;&gt;Node2</title>
<path fill="none" stroke="midnightblue" d="M968.92,-121.08C828.75,-120.8 417.81,-116.29 79.5,-76 78.03,-75.82 76.54,-75.63 75.03,-75.42"/>
<polygon fill="midnightblue" stroke="midnightblue" points="75.45,-71.94 65.02,-73.84 74.36,-78.86 75.45,-71.94"/>
</g>
<!-- Node3 -->
<g id="node3" class="node">
<title>Node3</title>
<g id="a_node3"><a xlink:title=" ">
<polygon fill="none" stroke="#bfbfbf" points="216.5,-0.5 216.5,-19.5 278.5,-19.5 278.5,-0.5 216.5,-0.5"/>
<text text-anchor="middle" x="247.5" y="-7.5" font-family="Helvetica,sans-Serif" font-size="10.00">stdbool.h</text>
</a>
</g>
</g>
<!-- Node1&#45;&gt;Node3 -->
<g id="edge2" class="edge">
<title>Node1&#45;&gt;Node3</title>
<path fill="none" stroke="midnightblue" d="M968.74,-120.4C783.39,-117.95 142.2,-107.21 112.5,-76 81.05,-42.94 156.08,-24.67 206.44,-16.44"/>
<polygon fill="midnightblue" stroke="midnightblue" points="207.11,-19.88 216.45,-14.88 206.03,-12.96 207.11,-19.88"/>
</g>
<!-- Node4 -->
<g id="node4" class="node">
<title>Node4</title>
<g id="a_node4"><a xlink:href="error_8h.html" target="_top" xlink:title=" ">
<polygon fill="none" stroke="black" points="121.5,-56.5 121.5,-75.5 169.5,-75.5 169.5,-56.5 121.5,-56.5"/>
<text text-anchor="middle" x="145.5" y="-63.5" font-family="Helvetica,sans-Serif" font-size="10.00">error.h</text>
</a>
</g>
</g>
<!-- Node1&#45;&gt;Node4 -->
<g id="edge3" class="edge">
<title>Node1&#45;&gt;Node4</title>
<path fill="none" stroke="midnightblue" d="M968.98,-119.68C813,-115.31 333.14,-100.19 179.5,-76 179.4,-75.98 179.3,-75.97 179.19,-75.95"/>
<polygon fill="midnightblue" stroke="midnightblue" points="180.01,-72.55 169.52,-74.01 178.63,-79.41 180.01,-72.55"/>
</g>
<!-- Node5 -->
<g id="node5" class="node">
<title>Node5</title>
<g id="a_node5"><a xlink:href="types_8h.html" target="_top" xlink:title=" ">
<polygon fill="none" stroke="red" points="188,-56.5 188,-75.5 241,-75.5 241,-56.5 188,-56.5"/>
<text text-anchor="middle" x="214.5" y="-63.5" font-family="Helvetica,sans-Serif" font-size="10.00">types.h</text>
</a>
</g>
</g>
<!-- Node1&#45;&gt;Node5 -->
<g id="edge4" class="edge">
<title>Node1&#45;&gt;Node5</title>
<path fill="none" stroke="midnightblue" d="M968.75,-121.28C847.5,-121.29 527.12,-117.19 251.33,-75.8"/>
<polygon fill="midnightblue" stroke="midnightblue" points="251.54,-72.29 241.12,-74.24 250.48,-79.21 251.54,-72.29"/>
</g>
<!-- Node8 -->
<g id="node6" class="node">
<title>Node8</title>
<g id="a_node6"><a xlink:href="concord-once_8h.html" target="_top" xlink:title="Initialized once.">
<polygon fill="none" stroke="black" points="259,-56.5 259,-75.5 350,-75.5 350,-56.5 259,-56.5"/>
<text text-anchor="middle" x="304.5" y="-63.5" font-family="Helvetica,sans-Serif" font-size="10.00">concord&#45;once.h</text>
</a>
</g>
</g>
<!-- Node1&#45;&gt;Node8 -->
<g id="edge5" class="edge">
<title>Node1&#45;&gt;Node8</title>
<path fill="none" stroke="midnightblue" d="M968.75,-119.2C860.22,-114.93 593.88,-102.59 360.12,-75.95"/>
<polygon fill="midnightblue" stroke="midnightblue" points="360.41,-72.46 350.07,-74.8 359.61,-79.42 360.41,-72.46"/>
</g>
<!-- Node9 -->
<g id="node7" class="node">
<title>Node9</title>
<g id="a_node7"><a xlink:href="io__poller_8h_source.html" target="_top" xlink:title=" ">
<polygon fill="none" stroke="red" points="368,-56.5 368,-75.5 435,-75.5 435,-56.5 368,-56.5"/>
<text text-anchor="middle" x="401.5" y="-63.5" font-family="Helvetica,sans-Serif" font-size="10.00">io_poller.h</text>
</a>
</g>
</g>
<!-- Node1&#45;&gt;Node9 -->
<g id="edge6" class="edge">
<title>Node1&#45;&gt;Node9</title>
<path fill="none" stroke="midnightblue" d="M968.74,-119.25C870.56,-115.32 644.86,-103.99 445.31,-75.92"/>
<polygon fill="midnightblue" stroke="midnightblue" points="445.62,-72.43 435.23,-74.49 444.64,-79.36 445.62,-72.43"/>
</g>
<!-- Node11 -->
<g id="node8" class="node">
<title>Node11</title>
<g id="a_node8"><a xlink:title=" ">
<polygon fill="none" stroke="#bfbfbf" points="453.5,-56.5 453.5,-75.5 553.5,-75.5 553.5,-56.5 453.5,-56.5"/>
<text text-anchor="middle" x="503.5" y="-63.5" font-family="Helvetica,sans-Serif" font-size="10.00">discord_codecs.h</text>
</a>
</g>
</g>
<!-- Node1&#45;&gt;Node11 -->
<g id="edge8" class="edge">
<title>Node1&#45;&gt;Node11</title>
<path fill="none" stroke="midnightblue" d="M968.92,-116.92C885.22,-109.85 710.61,-94.3 563.5,-76 563.4,-75.99 563.3,-75.97 563.2,-75.96"/>
<polygon fill="midnightblue" stroke="midnightblue" points="563.93,-72.53 553.56,-74.7 563.03,-79.47 563.93,-72.53"/>
</g>
<!-- Node12 -->
<g id="node9" class="node">
<title>Node12</title>
<g id="a_node9"><a xlink:href="discord-response_8h.html" target="_top" xlink:title="Generic macros for initializing a discord_response and return handles.">
<polygon fill="none" stroke="black" points="572,-56.5 572,-75.5 681,-75.5 681,-56.5 572,-56.5"/>
<text text-anchor="middle" x="626.5" y="-63.5" font-family="Helvetica,sans-Serif" font-size="10.00">discord&#45;response.h</text>
</a>
</g>
</g>
<!-- Node1&#45;&gt;Node12 -->
<g id="edge9" class="edge">
<title>Node1&#45;&gt;Node12</title>
<path fill="none" stroke="midnightblue" d="M968.76,-114.23C906.5,-105.74 796.29,-90.68 691.44,-76.13"/>
<polygon fill="midnightblue" stroke="midnightblue" points="691.7,-72.63 681.31,-74.72 690.73,-79.56 691.7,-72.63"/>
</g>
<!-- Node13 -->
<g id="node10" class="node">
<title>Node13</title>
<g id="a_node10"><a xlink:href="include_2audit__log_8h.html" target="_top" xlink:title="Audit Log public functions and datatypes.">
<polygon fill="none" stroke="black" points="699,-56.5 699,-75.5 770,-75.5 770,-56.5 699,-56.5"/>
<text text-anchor="middle" x="734.5" y="-63.5" font-family="Helvetica,sans-Serif" font-size="10.00">audit_log.h</text>
</a>
</g>
</g>
<!-- Node1&#45;&gt;Node13 -->
<g id="edge10" class="edge">
<title>Node1&#45;&gt;Node13</title>
<path fill="none" stroke="midnightblue" d="M972.21,-112.44C926.2,-103.91 853.35,-90.29 780.61,-76.2"/>
<polygon fill="midnightblue" stroke="midnightblue" points="780.84,-72.68 770.35,-74.21 779.5,-79.55 780.84,-72.68"/>
</g>
<!-- Node14 -->
<g id="node11" class="node">
<title>Node14</title>
<g id="a_node11"><a xlink:href="include_2auto__moderation_8h.html" target="_top" xlink:title="Auto Moderation public functions and datatypes.">
<polygon fill="none" stroke="black" points="788,-56.5 788,-75.5 897,-75.5 897,-56.5 788,-56.5"/>
<text text-anchor="middle" x="842.5" y="-63.5" font-family="Helvetica,sans-Serif" font-size="10.00">auto_moderation.h</text>
</a>
</g>
</g>
<!-- Node1&#45;&gt;Node14 -->
<g id="edge11" class="edge">
<title>Node1&#45;&gt;Node14</title>
<path fill="none" stroke="midnightblue" d="M990.61,-112.44C960.75,-103.28 913.19,-88.69 880.04,-78.52"/>
<polygon fill="midnightblue" stroke="midnightblue" points="880.84,-75.1 870.26,-75.52 878.79,-81.8 880.84,-75.1"/>
</g>
<!-- Node15 -->
<g id="node12" class="node">
<title>Node15</title>
<g id="a_node12"><a xlink:href="include_2invite_8h.html" target="_top" xlink:title="Invite public functions and datatypes.">
<polygon fill="none" stroke="black" points="915,-56.5 915,-75.5 968,-75.5 968,-56.5 915,-56.5"/>
<text text-anchor="middle" x="941.5" y="-63.5" font-family="Helvetica,sans-Serif" font-size="10.00">invite.h</text>
</a>
</g>
</g>
<!-- Node1&#45;&gt;Node15 -->
<g id="edge12" class="edge">
<title>Node1&#45;&gt;Node15</title>
<path fill="none" stroke="midnightblue" d="M1006.13,-112.32C994.34,-104.06 976.37,-91.45 962.36,-81.63"/>
<polygon fill="midnightblue" stroke="midnightblue" points="964.04,-78.53 953.84,-75.65 960.02,-84.26 964.04,-78.53"/>
</g>
<!-- Node16 -->
<g id="node13" class="node">
<title>Node16</title>
<g id="a_node13"><a xlink:href="include_2channel_8h.html" target="_top" xlink:title="Channel public functions and datatypes.">
<polygon fill="none" stroke="black" points="986.5,-56.5 986.5,-75.5 1050.5,-75.5 1050.5,-56.5 986.5,-56.5"/>
<text text-anchor="middle" x="1018.5" y="-63.5" font-family="Helvetica,sans-Serif" font-size="10.00">channel.h</text>
</a>
</g>
</g>
<!-- Node1&#45;&gt;Node16 -->
<g id="edge13" class="edge">
<title>Node1&#45;&gt;Node16</title>
<path fill="none" stroke="midnightblue" d="M1018.5,-112.08C1018.5,-105.01 1018.5,-94.86 1018.5,-85.99"/>
<polygon fill="midnightblue" stroke="midnightblue" points="1022,-85.75 1018.5,-75.75 1015,-85.75 1022,-85.75"/>
</g>
<!-- Node17 -->
<g id="node14" class="node">
<title>Node17</title>
<g id="a_node14"><a xlink:href="include_2emoji_8h.html" target="_top" xlink:title="Emoji public functions and datatypes.">
<polygon fill="none" stroke="black" points="1069,-56.5 1069,-75.5 1122,-75.5 1122,-56.5 1069,-56.5"/>
<text text-anchor="middle" x="1095.5" y="-63.5" font-family="Helvetica,sans-Serif" font-size="10.00">emoji.h</text>
</a>
</g>
</g>
<!-- Node1&#45;&gt;Node17 -->
<g id="edge14" class="edge">
<title>Node1&#45;&gt;Node17</title>
<path fill="none" stroke="midnightblue" d="M1030.87,-112.32C1042.66,-104.06 1060.63,-91.45 1074.64,-81.63"/>
<polygon fill="midnightblue" stroke="midnightblue" points="1076.98,-84.26 1083.16,-75.65 1072.96,-78.53 1076.98,-84.26"/>
</g>
<!-- Node18 -->
<g id="node15" class="node">
<title>Node18</title>
<g id="a_node15"><a xlink:href="include_2guild_8h.html" target="_top" xlink:title="Guild public functions and datatypes.">
<polygon fill="none" stroke="black" points="1140.5,-56.5 1140.5,-75.5 1190.5,-75.5 1190.5,-56.5 1140.5,-56.5"/>
<text text-anchor="middle" x="1165.5" y="-63.5" font-family="Helvetica,sans-Serif" font-size="10.00">guild.h</text>
</a>
</g>
</g>
<!-- Node1&#45;&gt;Node18 -->
<g id="edge15" class="edge">
<title>Node1&#45;&gt;Node18</title>
<path fill="none" stroke="midnightblue" d="M1041.79,-112.44C1066.31,-103.44 1105.1,-89.19 1132.7,-79.05"/>
<polygon fill="midnightblue" stroke="midnightblue" points="1134.14,-82.25 1142.32,-75.52 1131.72,-75.68 1134.14,-82.25"/>
</g>
<!-- Node19 -->
<g id="node16" class="node">
<title>Node19</title>
<g id="a_node16"><a xlink:href="include_2guild__scheduled__event_8h.html" target="_top" xlink:title="Guild Scheduled Event public functions and datatypes.">
<polygon fill="none" stroke="black" points="1209,-56.5 1209,-75.5 1346,-75.5 1346,-56.5 1209,-56.5"/>
<text text-anchor="middle" x="1277.5" y="-63.5" font-family="Helvetica,sans-Serif" font-size="10.00">guild_scheduled_event.h</text>
</a>
</g>
</g>
<!-- Node1&#45;&gt;Node19 -->
<g id="edge16" class="edge">
<title>Node1&#45;&gt;Node19</title>
<path fill="none" stroke="midnightblue" d="M1059.54,-112.44C1104.82,-103 1177.73,-87.8 1226.61,-77.61"/>
<polygon fill="midnightblue" stroke="midnightblue" points="1227.58,-80.98 1236.65,-75.52 1226.15,-74.13 1227.58,-80.98"/>
</g>
<!-- Node20 -->
<g id="node17" class="node">
<title>Node20</title>
<g id="a_node17"><a xlink:href="include_2guild__template_8h.html" target="_top" xlink:title="Guild Template public functions and datatypes.">
<polygon fill="none" stroke="black" points="1364,-56.5 1364,-75.5 1463,-75.5 1463,-56.5 1364,-56.5"/>
<text text-anchor="middle" x="1413.5" y="-63.5" font-family="Helvetica,sans-Serif" font-size="10.00">guild_template.h</text>
</a>
</g>
</g>
<!-- Node1&#45;&gt;Node20 -->
<g id="edge17" class="edge">
<title>Node1&#45;&gt;Node20</title>
<path fill="none" stroke="midnightblue" d="M1068.22,-114.7C1132.02,-106.53 1246.37,-91.65 1353.8,-76.22"/>
<polygon fill="midnightblue" stroke="midnightblue" points="1354.44,-79.67 1363.84,-74.78 1353.44,-72.74 1354.44,-79.67"/>
</g>
<!-- Node21 -->
<g id="node18" class="node">
<title>Node21</title>
<g id="a_node18"><a xlink:href="include_2user_8h.html" target="_top" xlink:title="User public functions and datatypes.">
<polygon fill="none" stroke="black" points="1481.5,-56.5 1481.5,-75.5 1527.5,-75.5 1527.5,-56.5 1481.5,-56.5"/>
<text text-anchor="middle" x="1504.5" y="-63.5" font-family="Helvetica,sans-Serif" font-size="10.00">user.h</text>
</a>
</g>
</g>
<!-- Node1&#45;&gt;Node21 -->
<g id="edge18" class="edge">
<title>Node1&#45;&gt;Node21</title>
<path fill="none" stroke="midnightblue" d="M1068.28,-118.92C1150.46,-114.87 1319.68,-103.91 1471.24,-75.93"/>
<polygon fill="midnightblue" stroke="midnightblue" points="1472.01,-79.35 1481.19,-74.06 1470.72,-72.47 1472.01,-79.35"/>
</g>
<!-- Node22 -->
<g id="node19" class="node">
<title>Node22</title>
<g id="a_node19"><a xlink:href="include_2voice_8h.html" target="_top" xlink:title="Voice public functions and datatypes.">
<polygon fill="none" stroke="black" points="1545.5,-56.5 1545.5,-75.5 1597.5,-75.5 1597.5,-56.5 1545.5,-56.5"/>
<text text-anchor="middle" x="1571.5" y="-63.5" font-family="Helvetica,sans-Serif" font-size="10.00">voice.h</text>
</a>
</g>
</g>
<!-- Node1&#45;&gt;Node22 -->
<g id="edge19" class="edge">
<title>Node1&#45;&gt;Node22</title>
<path fill="none" stroke="midnightblue" d="M1068.13,-119.41C1159.06,-115.91 1358.52,-105.5 1535.23,-75.95"/>
<polygon fill="midnightblue" stroke="midnightblue" points="1535.95,-79.38 1545.23,-74.25 1534.78,-72.47 1535.95,-79.38"/>
</g>
<!-- Node23 -->
<g id="node20" class="node">
<title>Node23</title>
<g id="a_node20"><a xlink:href="include_2webhook_8h.html" target="_top" xlink:title="Webhook public functions and datatypes.">
<polygon fill="none" stroke="black" points="1615.5,-56.5 1615.5,-75.5 1685.5,-75.5 1685.5,-56.5 1615.5,-56.5"/>
<text text-anchor="middle" x="1650.5" y="-63.5" font-family="Helvetica,sans-Serif" font-size="10.00">webhook.h</text>
</a>
</g>
</g>
<!-- Node1&#45;&gt;Node23 -->
<g id="edge20" class="edge">
<title>Node1&#45;&gt;Node23</title>
<path fill="none" stroke="midnightblue" d="M1068.29,-119.3C1168.25,-115.42 1400.63,-104.12 1605.01,-76.05"/>
<polygon fill="midnightblue" stroke="midnightblue" points="1605.6,-79.5 1615.02,-74.65 1604.64,-72.56 1605.6,-79.5"/>
</g>
<!-- Node24 -->
<g id="node21" class="node">
<title>Node24</title>
<g id="a_node21"><a xlink:href="include_2gateway_8h.html" target="_top" xlink:title="Gateway public functions and datatypes.">
<polygon fill="none" stroke="black" points="1703.5,-56.5 1703.5,-75.5 1769.5,-75.5 1769.5,-56.5 1703.5,-56.5"/>
<text text-anchor="middle" x="1736.5" y="-63.5" font-family="Helvetica,sans-Serif" font-size="10.00">gateway.h</text>
</a>
</g>
</g>
<!-- Node1&#45;&gt;Node24 -->
<g id="edge21" class="edge">
<title>Node1&#45;&gt;Node24</title>
<path fill="none" stroke="midnightblue" d="M1068.37,-120.14C1179.14,-117.71 1454.16,-108.75 1693.19,-75.99"/>
<polygon fill="midnightblue" stroke="midnightblue" points="1693.68,-79.45 1703.11,-74.61 1692.72,-72.52 1693.68,-79.45"/>
</g>
<!-- Node25 -->
<g id="node22" class="node">
<title>Node25</title>
<g id="a_node22"><a xlink:href="application__command_8h.html" target="_top" xlink:title="Application Command public functions and datatypes.">
<polygon fill="none" stroke="black" points="1787.5,-56.5 1787.5,-75.5 1921.5,-75.5 1921.5,-56.5 1787.5,-56.5"/>
<text text-anchor="middle" x="1854.5" y="-63.5" font-family="Helvetica,sans-Serif" font-size="10.00">application_command.h</text>
</a>
</g>
</g>
<!-- Node1&#45;&gt;Node25 -->
<g id="edge22" class="edge">
<title>Node1&#45;&gt;Node25</title>
<path fill="none" stroke="midnightblue" d="M1068.37,-119.06C1188.46,-114.18 1503.42,-100.07 1777.25,-76.06"/>
<polygon fill="midnightblue" stroke="midnightblue" points="1777.73,-79.53 1787.39,-75.16 1777.12,-72.56 1777.73,-79.53"/>
</g>
<!-- Node26 -->
<g id="node23" class="node">
<title>Node26</title>
<g id="a_node23"><a xlink:href="interaction_8h.html" target="_top" xlink:title="Interaciton public functions and datatypes.">
<polygon fill="none" stroke="black" points="1939.5,-56.5 1939.5,-75.5 2017.5,-75.5 2017.5,-56.5 1939.5,-56.5"/>
<text text-anchor="middle" x="1978.5" y="-63.5" font-family="Helvetica,sans-Serif" font-size="10.00">interaction.h</text>
</a>
</g>
</g>
<!-- Node1&#45;&gt;Node26 -->
<g id="edge23" class="edge">
<title>Node1&#45;&gt;Node26</title>
<path fill="none" stroke="midnightblue" d="M1068.13,-120.92C1204.23,-120.19 1594.91,-114.71 1928.91,-76.02"/>
<polygon fill="midnightblue" stroke="midnightblue" points="1929.75,-79.44 1939.27,-74.8 1928.93,-72.49 1929.75,-79.44"/>
</g>
<!-- Node27 -->
<g id="node24" class="node">
<title>Node27</title>
<g id="a_node24"><a xlink:href="discord-events_8h.html" target="_top" xlink:title="Listen, react and trigger Discord Gateway events.">
<polygon fill="none" stroke="black" points="2035.5,-56.5 2035.5,-75.5 2133.5,-75.5 2133.5,-56.5 2035.5,-56.5"/>
<text text-anchor="middle" x="2084.5" y="-63.5" font-family="Helvetica,sans-Serif" font-size="10.00">discord&#45;events.h</text>
</a>
</g>
</g>
<!-- Node1&#45;&gt;Node27 -->
<g id="edge24" class="edge">
<title>Node1&#45;&gt;Node27</title>
<path fill="none" stroke="midnightblue" d="M1068.2,-120.7C1213.74,-119.42 1651.78,-112.65 2025,-76.04"/>
<polygon fill="midnightblue" stroke="midnightblue" points="2025.58,-79.5 2035.19,-75.03 2024.89,-72.53 2025.58,-79.5"/>
</g>
<!-- Node9&#45;&gt;Node3 -->
<g id="edge7" class="edge">
<title>Node9&#45;&gt;Node3</title>
<path fill="none" stroke="midnightblue" d="M377.1,-56.44C351.3,-47.4 310.42,-33.06 281.48,-22.92"/>
<polygon fill="midnightblue" stroke="midnightblue" points="282.38,-19.52 271.79,-19.52 280.07,-26.13 282.38,-19.52"/>
</g>
</g>
</svg>
