<?xml version="1.0" encoding="UTF-8" standalone="no"?>
<!DOCTYPE svg PUBLIC "-//W3C//DTD SVG 1.1//EN"
 "http://www.w3.org/Graphics/SVG/1.1/DTD/svg11.dtd">
<!-- Generated by graphviz version 2.43.0 (0)
 -->
<!-- Title: include/discord.h Pages: 1 -->
<svg width="1768pt" height="84pt"
 viewBox="0.00 0.00 1767.50 84.00" xmlns="http://www.w3.org/2000/svg" xmlns:xlink="http://www.w3.org/1999/xlink">
<g id="graph0" class="graph" transform="scale(1 1) rotate(0) translate(4 80)">
<title>include/discord.h</title>
<!-- Node1 -->
<g id="node1" class="node">
<title>Node1</title>
<g id="a_node1"><a xlink:title="Public functions and datatypes.">
<polygon fill="#bfbfbf" stroke="black" points="788,-56.5 788,-75.5 887,-75.5 887,-56.5 788,-56.5"/>
<text text-anchor="middle" x="837.5" y="-63.5" font-family="Helvetica,sans-Serif" font-size="10.00">include/discord.h</text>
</a>
</g>
</g>
<!-- Node2 -->
<g id="node2" class="node">
<title>Node2</title>
<g id="a_node2"><a xlink:title=" ">
<polygon fill="none" stroke="#bfbfbf" points="0,-0.5 0,-19.5 65,-19.5 65,-0.5 0,-0.5"/>
<text text-anchor="middle" x="32.5" y="-7.5" font-family="Helvetica,sans-Serif" font-size="10.00">inttypes.h</text>
</a>
</g>
</g>
<!-- Node1&#45;&gt;Node2 -->
<g id="edge1" class="edge">
<title>Node1&#45;&gt;Node2</title>
<path fill="none" stroke="midnightblue" d="M787.7,-64.68C667.08,-63.34 349.63,-56.47 75.57,-19.92"/>
<polygon fill="midnightblue" stroke="midnightblue" points="75.81,-16.42 65.43,-18.55 74.87,-23.36 75.81,-16.42"/>
</g>
<!-- Node3 -->
<g id="node3" class="node">
<title>Node3</title>
<g id="a_node3"><a xlink:title=" ">
<polygon fill="none" stroke="#bfbfbf" points="83.5,-0.5 83.5,-19.5 145.5,-19.5 145.5,-0.5 83.5,-0.5"/>
<text text-anchor="middle" x="114.5" y="-7.5" font-family="Helvetica,sans-Serif" font-size="10.00">stdbool.h</text>
</a>
</g>
</g>
<!-- Node1&#45;&gt;Node3 -->
<g id="edge2" class="edge">
<title>Node1&#45;&gt;Node3</title>
<path fill="none" stroke="midnightblue" d="M787.94,-64.37C676.54,-62.39 397.78,-54.27 155.89,-19.98"/>
<polygon fill="midnightblue" stroke="midnightblue" points="156.25,-16.5 145.86,-18.54 155.26,-23.43 156.25,-16.5"/>
</g>
<!-- Node4 -->
<g id="node4" class="node">
<title>Node4</title>
<g id="a_node4"><a xlink:title=" ">
<polygon fill="none" stroke="#bfbfbf" points="164,-0.5 164,-19.5 225,-19.5 225,-0.5 164,-0.5"/>
<text text-anchor="middle" x="194.5" y="-7.5" font-family="Helvetica,sans-Serif" font-size="10.00">logconf.h</text>
</a>
</g>
</g>
<!-- Node1&#45;&gt;Node4 -->
<g id="edge3" class="edge">
<title>Node1&#45;&gt;Node4</title>
<path fill="none" stroke="midnightblue" d="M787.98,-63.76C686.23,-60.69 446.19,-50.72 235.44,-19.91"/>
<polygon fill="midnightblue" stroke="midnightblue" points="235.83,-16.43 225.42,-18.43 234.8,-23.36 235.83,-16.43"/>
</g>
<!-- Node5 -->
<g id="node5" class="node">
<title>Node5</title>
<g id="a_node5"><a xlink:href="error_8h.html" target="_top" xlink:title=" ">
<polygon fill="none" stroke="black" points="243.5,-0.5 243.5,-19.5 291.5,-19.5 291.5,-0.5 243.5,-0.5"/>
<text text-anchor="middle" x="267.5" y="-7.5" font-family="Helvetica,sans-Serif" font-size="10.00">error.h</text>
</a>
</g>
</g>
<!-- Node1&#45;&gt;Node5 -->
<g id="edge4" class="edge">
<title>Node1&#45;&gt;Node5</title>
<path fill="none" stroke="midnightblue" d="M787.88,-63.86C694.35,-61.07 485.58,-51.72 301.4,-19.83"/>
<polygon fill="midnightblue" stroke="midnightblue" points="301.99,-16.38 291.54,-18.1 300.78,-23.28 301.99,-16.38"/>
</g>
<!-- Node6 -->
<g id="node6" class="node">
<title>Node6</title>
<g id="a_node6"><a xlink:href="types_8h.html" target="_top" xlink:title=" ">
<polygon fill="none" stroke="black" points="310,-0.5 310,-19.5 363,-19.5 363,-0.5 310,-0.5"/>
<text text-anchor="middle" x="336.5" y="-7.5" font-family="Helvetica,sans-Serif" font-size="10.00">types.h</text>
</a>
</g>
</g>
<!-- Node1&#45;&gt;Node6 -->
<g id="edge5" class="edge">
<title>Node1&#45;&gt;Node6</title>
<path fill="none" stroke="midnightblue" d="M787.84,-62.74C704.13,-58.38 529.51,-46.92 373.41,-20.1"/>
<polygon fill="midnightblue" stroke="midnightblue" points="373.61,-16.58 363.16,-18.31 372.41,-23.48 373.61,-16.58"/>
</g>
<!-- Node7 -->
<g id="node7" class="node">
<title>Node7</title>
<g id="a_node7"><a xlink:href="concord-once_8h.html" target="_top" xlink:title="Initialized once.">
<polygon fill="none" stroke="black" points="381,-0.5 381,-19.5 472,-19.5 472,-0.5 381,-0.5"/>
<text text-anchor="middle" x="426.5" y="-7.5" font-family="Helvetica,sans-Serif" font-size="10.00">concord&#45;once.h</text>
</a>
</g>
</g>
<!-- Node1&#45;&gt;Node7 -->
<g id="edge6" class="edge">
<title>Node1&#45;&gt;Node7</title>
<path fill="none" stroke="midnightblue" d="M787.89,-59.31C720.98,-51.5 597.85,-36.69 482.19,-20.05"/>
<polygon fill="midnightblue" stroke="midnightblue" points="482.5,-16.56 472.1,-18.59 481.49,-23.49 482.5,-16.56"/>
</g>
<!-- Node8 -->
<g id="node8" class="node">
<title>Node8</title>
<g id="a_node8"><a xlink:title=" ">
<polygon fill="none" stroke="#bfbfbf" points="490.5,-0.5 490.5,-19.5 588.5,-19.5 588.5,-0.5 490.5,-0.5"/>
<text text-anchor="middle" x="539.5" y="-7.5" font-family="Helvetica,sans-Serif" font-size="10.00">discord&#45;codecs.h</text>
</a>
</g>
</g>
<!-- Node1&#45;&gt;Node8 -->
<g id="edge7" class="edge">
<title>Node1&#45;&gt;Node8</title>
<path fill="none" stroke="midnightblue" d="M790.28,-56.44C737.75,-46.92 652.89,-31.55 596.65,-21.36"/>
<polygon fill="midnightblue" stroke="midnightblue" points="596.96,-17.86 586.5,-19.52 595.71,-24.74 596.96,-17.86"/>
</g>
<!-- Node9 -->
<g id="node9" class="node">
<title>Node9</title>
<g id="a_node9"><a xlink:href="include_2audit__log_8h.html" target="_top" xlink:title="Audit Log public functions and datatypes.">
<polygon fill="none" stroke="red" points="607,-0.5 607,-19.5 678,-19.5 678,-0.5 607,-0.5"/>
<text text-anchor="middle" x="642.5" y="-7.5" font-family="Helvetica,sans-Serif" font-size="10.00">audit_log.h</text>
</a>
</g>
</g>
<!-- Node1&#45;&gt;Node9 -->
<g id="edge8" class="edge">
<title>Node1&#45;&gt;Node9</title>
<path fill="none" stroke="midnightblue" d="M806.6,-56.44C773.23,-47.2 719.91,-32.44 683.15,-22.26"/>
<polygon fill="midnightblue" stroke="midnightblue" points="683.83,-18.81 673.25,-19.52 681.96,-25.56 683.83,-18.81"/>
</g>
<!-- Node11 -->
<g id="node10" class="node">
<title>Node11</title>
<g id="a_node10"><a xlink:href="include_2invite_8h.html" target="_top" xlink:title="Invite public functions and datatypes.">
<polygon fill="none" stroke="red" points="696,-0.5 696,-19.5 749,-19.5 749,-0.5 696,-0.5"/>
<text text-anchor="middle" x="722.5" y="-7.5" font-family="Helvetica,sans-Serif" font-size="10.00">invite.h</text>
</a>
</g>
</g>
<!-- Node1&#45;&gt;Node11 -->
<g id="edge9" class="edge">
<title>Node1&#45;&gt;Node11</title>
<path fill="none" stroke="midnightblue" d="M819.28,-56.44C800.6,-47.68 771.34,-33.94 749.88,-23.86"/>
<polygon fill="midnightblue" stroke="midnightblue" points="751.18,-20.6 740.64,-19.52 748.2,-26.93 751.18,-20.6"/>
</g>
<!-- Node12 -->
<g id="node11" class="node">
<title>Node12</title>
<g id="a_node11"><a xlink:href="include_2channel_8h.html" target="_top" xlink:title="Channel public functions and datatypes.">
<polygon fill="none" stroke="red" points="767.5,-0.5 767.5,-19.5 831.5,-19.5 831.5,-0.5 767.5,-0.5"/>
<text text-anchor="middle" x="799.5" y="-7.5" font-family="Helvetica,sans-Serif" font-size="10.00">channel.h</text>
</a>
</g>
</g>
<!-- Node1&#45;&gt;Node12 -->
<g id="edge10" class="edge">
<title>Node1&#45;&gt;Node12</title>
<path fill="none" stroke="midnightblue" d="M831.23,-56.08C825.86,-48.46 817.98,-37.26 811.42,-27.94"/>
<polygon fill="midnightblue" stroke="midnightblue" points="814.28,-25.91 805.66,-19.75 808.55,-29.94 814.28,-25.91"/>
</g>
<!-- Node13 -->
<g id="node12" class="node">
<title>Node13</title>
<g id="a_node12"><a xlink:href="include_2emoji_8h.html" target="_top" xlink:title="Emoji public functions and datatypes.">
<polygon fill="none" stroke="red" points="850,-0.5 850,-19.5 903,-19.5 903,-0.5 850,-0.5"/>
<text text-anchor="middle" x="876.5" y="-7.5" font-family="Helvetica,sans-Serif" font-size="10.00">emoji.h</text>
</a>
</g>
</g>
<!-- Node1&#45;&gt;Node13 -->
<g id="edge11" class="edge">
<title>Node1&#45;&gt;Node13</title>
<path fill="none" stroke="midnightblue" d="M843.94,-56.08C849.45,-48.46 857.53,-37.26 864.26,-27.94"/>
<polygon fill="midnightblue" stroke="midnightblue" points="867.16,-29.91 870.18,-19.75 861.49,-25.81 867.16,-29.91"/>
</g>
<!-- Node14 -->
<g id="node13" class="node">
<title>Node14</title>
<g id="a_node13"><a xlink:href="include_2guild_8h.html" target="_top" xlink:title="Guild public functions and datatypes.">
<polygon fill="none" stroke="red" points="921.5,-0.5 921.5,-19.5 971.5,-19.5 971.5,-0.5 921.5,-0.5"/>
<text text-anchor="middle" x="946.5" y="-7.5" font-family="Helvetica,sans-Serif" font-size="10.00">guild.h</text>
</a>
</g>
</g>
<!-- Node1&#45;&gt;Node14 -->
<g id="edge12" class="edge">
<title>Node1&#45;&gt;Node14</title>
<path fill="none" stroke="midnightblue" d="M855.01,-56.32C872.57,-47.62 899.83,-34.12 920.03,-24.11"/>
<polygon fill="midnightblue" stroke="midnightblue" points="921.62,-27.23 929.03,-19.65 918.52,-20.96 921.62,-27.23"/>
</g>
<!-- Node15 -->
<g id="node14" class="node">
<title>Node15</title>
<g id="a_node14"><a xlink:href="include_2guild__template_8h.html" target="_top" xlink:title="Guild Template public functions and datatypes.">
<polygon fill="none" stroke="red" points="990,-0.5 990,-19.5 1089,-19.5 1089,-0.5 990,-0.5"/>
<text text-anchor="middle" x="1039.5" y="-7.5" font-family="Helvetica,sans-Serif" font-size="10.00">guild_template.h</text>
</a>
</g>
</g>
<!-- Node1&#45;&gt;Node15 -->
<g id="edge13" class="edge">
<title>Node1&#45;&gt;Node15</title>
<path fill="none" stroke="midnightblue" d="M869.51,-56.44C904.23,-47.16 959.79,-32.31 997.88,-22.13"/>
<polygon fill="midnightblue" stroke="midnightblue" points="998.89,-25.48 1007.64,-19.52 997.08,-18.72 998.89,-25.48"/>
</g>
<!-- Node16 -->
<g id="node15" class="node">
<title>Node16</title>
<g id="a_node15"><a xlink:href="include_2user_8h.html" target="_top" xlink:title="User public functions and datatypes.">
<polygon fill="none" stroke="red" points="1107.5,-0.5 1107.5,-19.5 1153.5,-19.5 1153.5,-0.5 1107.5,-0.5"/>
<text text-anchor="middle" x="1130.5" y="-7.5" font-family="Helvetica,sans-Serif" font-size="10.00">user.h</text>
</a>
</g>
</g>
<!-- Node1&#45;&gt;Node16 -->
<g id="edge14" class="edge">
<title>Node1&#45;&gt;Node16</title>
<path fill="none" stroke="midnightblue" d="M887.35,-57.97C937.94,-50.49 1018.66,-37.6 1097.1,-20.13"/>
<polygon fill="midnightblue" stroke="midnightblue" points="1098.17,-23.48 1107.15,-17.87 1096.63,-16.65 1098.17,-23.48"/>
</g>
<!-- Node17 -->
<g id="node16" class="node">
<title>Node17</title>
<g id="a_node16"><a xlink:href="include_2voice_8h.html" target="_top" xlink:title="Voice public functions and datatypes.">
<polygon fill="none" stroke="red" points="1171.5,-0.5 1171.5,-19.5 1223.5,-19.5 1223.5,-0.5 1171.5,-0.5"/>
<text text-anchor="middle" x="1197.5" y="-7.5" font-family="Helvetica,sans-Serif" font-size="10.00">voice.h</text>
</a>
</g>
</g>
<!-- Node1&#45;&gt;Node17 -->
<g id="edge15" class="edge">
<title>Node1&#45;&gt;Node17</title>
<path fill="none" stroke="midnightblue" d="M887.07,-59.92C949.06,-53.17 1058.56,-39.95 1161.28,-20.05"/>
<polygon fill="midnightblue" stroke="midnightblue" points="1162.06,-23.47 1171.2,-18.11 1160.71,-16.6 1162.06,-23.47"/>
</g>
<!-- Node18 -->
<g id="node17" class="node">
<title>Node18</title>
<g id="a_node17"><a xlink:href="include_2webhook_8h.html" target="_top" xlink:title="Webhook public functions and datatypes.">
<polygon fill="none" stroke="red" points="1241.5,-0.5 1241.5,-19.5 1311.5,-19.5 1311.5,-0.5 1241.5,-0.5"/>
<text text-anchor="middle" x="1276.5" y="-7.5" font-family="Helvetica,sans-Serif" font-size="10.00">webhook.h</text>
</a>
</g>
</g>
<!-- Node1&#45;&gt;Node18 -->
<g id="edge16" class="edge">
<title>Node1&#45;&gt;Node18</title>
<path fill="none" stroke="midnightblue" d="M887.26,-60.75C960.44,-54.19 1101.55,-40.36 1231.37,-20.05"/>
<polygon fill="midnightblue" stroke="midnightblue" points="1232.16,-23.47 1241.49,-18.45 1231.06,-16.56 1232.16,-23.47"/>
</g>
<!-- Node19 -->
<g id="node18" class="node">
<title>Node19</title>
<g id="a_node18"><a xlink:href="include_2gateway_8h.html" target="_top" xlink:title="Gateway public functions and datatypes.">
<polygon fill="none" stroke="black" points="1329.5,-0.5 1329.5,-19.5 1395.5,-19.5 1395.5,-0.5 1329.5,-0.5"/>
<text text-anchor="middle" x="1362.5" y="-7.5" font-family="Helvetica,sans-Serif" font-size="10.00">gateway.h</text>
</a>
</g>
</g>
<!-- Node1&#45;&gt;Node19 -->
<g id="edge17" class="edge">
<title>Node1&#45;&gt;Node19</title>
<path fill="none" stroke="midnightblue" d="M887.1,-62.32C973.08,-57.25 1155.48,-44.63 1318.86,-20.09"/>
<polygon fill="midnightblue" stroke="midnightblue" points="1319.74,-23.5 1329.1,-18.53 1318.68,-16.57 1319.74,-23.5"/>
</g>
<!-- Node20 -->
<g id="node19" class="node">
<title>Node20</title>
<g id="a_node19"><a xlink:href="application__command_8h.html" target="_top" xlink:title="Application Command public functions and datatypes.">
<polygon fill="none" stroke="red" points="1413.5,-0.5 1413.5,-19.5 1547.5,-19.5 1547.5,-0.5 1413.5,-0.5"/>
<text text-anchor="middle" x="1480.5" y="-7.5" font-family="Helvetica,sans-Serif" font-size="10.00">application_command.h</text>
</a>
</g>
</g>
<!-- Node1&#45;&gt;Node20 -->
<g id="edge18" class="edge">
<title>Node1&#45;&gt;Node20</title>
<path fill="none" stroke="midnightblue" d="M887.24,-61.7C984.32,-55.12 1206.09,-39.4 1403.41,-20.07"/>
<polygon fill="midnightblue" stroke="midnightblue" points="1403.77,-23.55 1413.38,-19.09 1403.08,-16.59 1403.77,-23.55"/>
</g>
<!-- Node21 -->
<g id="node20" class="node">
<title>Node21</title>
<g id="a_node20"><a xlink:href="interaction_8h.html" target="_top" xlink:title="Interaciton public functions and datatypes.">
<polygon fill="none" stroke="red" points="1565.5,-0.5 1565.5,-19.5 1643.5,-19.5 1643.5,-0.5 1565.5,-0.5"/>
<text text-anchor="middle" x="1604.5" y="-7.5" font-family="Helvetica,sans-Serif" font-size="10.00">interaction.h</text>
</a>
</g>
</g>
<!-- Node1&#45;&gt;Node21 -->
<g id="edge19" class="edge">
<title>Node1&#45;&gt;Node21</title>
<path fill="none" stroke="midnightblue" d="M887.38,-63.99C1003.02,-61.18 1298.49,-51.41 1555.01,-20.03"/>
<polygon fill="midnightblue" stroke="midnightblue" points="1555.77,-23.46 1565.27,-18.76 1554.91,-16.52 1555.77,-23.46"/>
</g>
<!-- Node22 -->
<g id="node21" class="node">
<title>Node22</title>
<g id="a_node21"><a xlink:href="discord-events_8h.html" target="_top" xlink:title="Listen and react to Discord events.">
<polygon fill="none" stroke="black" points="1661.5,-0.5 1661.5,-19.5 1759.5,-19.5 1759.5,-0.5 1661.5,-0.5"/>
<text text-anchor="middle" x="1710.5" y="-7.5" font-family="Helvetica,sans-Serif" font-size="10.00">discord&#45;events.h</text>
</a>
</g>
</g>
<!-- Node1&#45;&gt;Node22 -->
<g id="edge20" class="edge">
<title>Node1&#45;&gt;Node22</title>
<path fill="none" stroke="midnightblue" d="M887.25,-63.96C1013.33,-60.97 1355.78,-50.55 1651.44,-20"/>
<polygon fill="midnightblue" stroke="midnightblue" points="1651.91,-23.47 1661.5,-18.95 1651.19,-16.51 1651.91,-23.47"/>
</g>
</g>
</svg>
