<?xml version="1.0" encoding="UTF-8" standalone="no"?>
<!DOCTYPE svg PUBLIC "-//W3C//DTD SVG 1.1//EN"
 "http://www.w3.org/Graphics/SVG/1.1/DTD/svg11.dtd">
<!-- Generated by graphviz version 2.43.0 (0)
 -->
<!-- Title: Events Pages: 1 -->
<svg width="273pt" height="27pt"
 viewBox="0.00 0.00 273.00 27.00" xmlns="http://www.w3.org/2000/svg" xmlns:xlink="http://www.w3.org/1999/xlink">
<g id="graph0" class="graph" transform="scale(1 1) rotate(0) translate(4 23)">
<title>Events</title>
<!-- Node2 -->
<g id="node1" class="node">
<title>Node2</title>
<g id="a_node1"><a xlink:href="group__DiscordClient.html" target="_top" xlink:title="Client functions and datatypes.">
<polygon fill="none" stroke="black" points="45,-19 0,-19 0,0 45,0 45,-19"/>
<text text-anchor="middle" x="22.5" y="-7" font-family="Helvetica,sans-Serif" font-size="10.00">Client</text>
</a>
</g>
</g>
<!-- Node1 -->
<g id="node2" class="node">
<title>Node1</title>
<g id="a_node2"><a xlink:title="Events sent over the Gateway socket to the client.">
<polygon fill="#bfbfbf" stroke="black" points="131,-19 81,-19 81,0 131,0 131,-19"/>
<text text-anchor="middle" x="106" y="-7" font-family="Helvetica,sans-Serif" font-size="10.00">Events</text>
</a>
</g>
</g>
<!-- Node2&#45;&gt;Node1 -->
<g id="edge1" class="edge">
<title>Node2&#45;&gt;Node1</title>
<path fill="none" stroke="black" d="M55.59,-9.5C63.98,-9.5 72.89,-9.5 80.8,-9.5"/>
<polygon fill="black" stroke="black" points="55.34,-6 45.34,-9.5 55.34,-13 55.34,-6"/>
</g>
<!-- Node3 -->
<g id="node3" class="node">
<title>Node3</title>
<g id="a_node3"><a xlink:href="group__DiscordEventsCallbacks.html" target="_top" xlink:title="Callback types for Discord events.">
<polygon fill="none" stroke="black" points="265,-19 167,-19 167,0 265,0 265,-19"/>
<text text-anchor="middle" x="216" y="-7" font-family="Helvetica,sans-Serif" font-size="10.00">Events callbacks</text>
</a>
</g>
</g>
<!-- Node1&#45;&gt;Node3 -->
<g id="edge2" class="edge">
<title>Node1&#45;&gt;Node3</title>
<path fill="none" stroke="black" d="M141.44,-9.5C149.56,-9.5 158.36,-9.5 166.96,-9.5"/>
<polygon fill="black" stroke="black" points="141.24,-6 131.24,-9.5 141.24,-13 141.24,-6"/>
</g>
</g>
</svg>
