<?xml version="1.0" encoding="UTF-8" standalone="no"?>
<!DOCTYPE svg PUBLIC "-//W3C//DTD SVG 1.1//EN"
 "http://www.w3.org/Graphics/SVG/1.1/DTD/svg11.dtd">
<!-- Generated by graphviz version 2.43.0 (0)
 -->
<!-- Title: API Pages: 1 -->
<svg width="202pt" height="508pt"
 viewBox="0.00 0.00 202.00 508.00" xmlns="http://www.w3.org/2000/svg" xmlns:xlink="http://www.w3.org/1999/xlink">
<g id="graph0" class="graph" transform="scale(1 1) rotate(0) translate(4 504)">
<title>API</title>
<!-- Node1 -->
<g id="node1" class="node">
<title>Node1</title>
<g id="a_node1"><a xlink:title="The Discord public API supported by Concord.">
<polygon fill="#bfbfbf" stroke="black" points="32,-259 0,-259 0,-240 32,-240 32,-259"/>
<text text-anchor="middle" x="16" y="-247" font-family="Helvetica,sans-Serif" font-size="10.00">API</text>
</a>
</g>
</g>
<!-- Node3 -->
<g id="node2" class="node">
<title>Node3</title>
<g id="a_node2"><a xlink:href="group__DiscordAPIAuditLog.html" target="_top" xlink:title="Audit Log&#39;s public API supported by Concord.">
<polygon fill="none" stroke="black" points="162,-500 100,-500 100,-481 162,-481 162,-500"/>
<text text-anchor="middle" x="131" y="-488" font-family="Helvetica,sans-Serif" font-size="10.00">Audit Log</text>
</a>
</g>
</g>
<!-- Node1&#45;&gt;Node3 -->
<g id="edge2" class="edge">
<title>Node1&#45;&gt;Node3</title>
<path fill="none" stroke="black" d="M18.97,-269.29C24.23,-318.2 40.11,-442.95 68,-472.5 76.23,-481.22 88.41,-485.8 99.81,-488.17"/>
<polygon fill="black" stroke="black" points="22.42,-268.66 17.91,-259.08 15.46,-269.38 22.42,-268.66"/>
</g>
<!-- Node4 -->
<g id="node3" class="node">
<title>Node4</title>
<g id="a_node3"><a xlink:href="group__DiscordAPIAutoModeration.html" target="_top" xlink:title="Auto Moderation public API supported by Concord.">
<polygon fill="none" stroke="black" points="180,-463 82,-463 82,-444 180,-444 180,-463"/>
<text text-anchor="middle" x="131" y="-451" font-family="Helvetica,sans-Serif" font-size="10.00">Auto Moderation</text>
</a>
</g>
</g>
<!-- Node1&#45;&gt;Node4 -->
<g id="edge3" class="edge">
<title>Node1&#45;&gt;Node4</title>
<path fill="none" stroke="black" d="M16.51,-269.37C16.69,-307.1 22.64,-389.46 68,-435.5 71.93,-439.49 76.69,-442.61 81.81,-445.05"/>
<polygon fill="black" stroke="black" points="20.01,-269.21 16.6,-259.18 13.01,-269.15 20.01,-269.21"/>
</g>
<!-- Node5 -->
<g id="node4" class="node">
<title>Node5</title>
<g id="a_node4"><a xlink:href="group__DiscordAPIChannel.html" target="_top" xlink:title="Channel&#39;s public API supported by Concord.">
<polygon fill="none" stroke="black" points="159,-426 103,-426 103,-407 159,-407 159,-426"/>
<text text-anchor="middle" x="131" y="-414" font-family="Helvetica,sans-Serif" font-size="10.00">Channel</text>
</a>
</g>
</g>
<!-- Node1&#45;&gt;Node5 -->
<g id="edge4" class="edge">
<title>Node1&#45;&gt;Node5</title>
<path fill="none" stroke="black" d="M18.13,-269.34C21.04,-301.15 31.35,-363.54 68,-398.5 77.33,-407.4 90.79,-411.93 102.78,-414.23"/>
<polygon fill="black" stroke="black" points="21.61,-268.82 17.37,-259.11 14.63,-269.34 21.61,-268.82"/>
</g>
<!-- Node6 -->
<g id="node5" class="node">
<title>Node6</title>
<g id="a_node5"><a xlink:href="group__DiscordAPIEmoji.html" target="_top" xlink:title="Emoji&#39;s public API supported by Concord.">
<polygon fill="none" stroke="black" points="153,-389 109,-389 109,-370 153,-370 153,-389"/>
<text text-anchor="middle" x="131" y="-377" font-family="Helvetica,sans-Serif" font-size="10.00">Emoji</text>
</a>
</g>
</g>
<!-- Node1&#45;&gt;Node6 -->
<g id="edge5" class="edge">
<title>Node1&#45;&gt;Node6</title>
<path fill="none" stroke="black" d="M20.67,-269.03C26.39,-294.07 39.85,-337.15 68,-361.5 79.36,-371.32 95.81,-375.8 108.92,-377.83"/>
<polygon fill="black" stroke="black" points="24.09,-268.29 18.61,-259.22 17.24,-269.73 24.09,-268.29"/>
</g>
<!-- Node7 -->
<g id="node6" class="node">
<title>Node7</title>
<g id="a_node6"><a xlink:href="group__DiscordAPIGateway.html" target="_top" xlink:title="Gateway&#39;s public API supported by Concord.">
<polygon fill="none" stroke="black" points="161,-352 101,-352 101,-333 161,-333 161,-352"/>
<text text-anchor="middle" x="131" y="-340" font-family="Helvetica,sans-Serif" font-size="10.00">Gateway</text>
</a>
</g>
</g>
<!-- Node1&#45;&gt;Node7 -->
<g id="edge6" class="edge">
<title>Node1&#45;&gt;Node7</title>
<path fill="none" stroke="black" d="M25.35,-268.66C33.75,-285.73 48.27,-310.17 68,-324.5 77.61,-331.48 89.9,-335.77 100.99,-338.39"/>
<polygon fill="black" stroke="black" points="28.31,-266.73 20.93,-259.14 21.97,-269.68 28.31,-266.73"/>
</g>
<!-- Node8 -->
<g id="node7" class="node">
<title>Node8</title>
<g id="a_node7"><a xlink:href="group__DiscordAPIGuild.html" target="_top" xlink:title="Guild&#39;s public API supported by Concord.">
<polygon fill="none" stroke="black" points="152,-315 110,-315 110,-296 152,-296 152,-315"/>
<text text-anchor="middle" x="131" y="-303" font-family="Helvetica,sans-Serif" font-size="10.00">Guild</text>
</a>
</g>
</g>
<!-- Node1&#45;&gt;Node8 -->
<g id="edge7" class="edge">
<title>Node1&#45;&gt;Node8</title>
<path fill="none" stroke="black" d="M35.33,-265.68C44.61,-273.19 56.34,-281.7 68,-287.5 81.25,-294.09 97.32,-298.67 109.78,-301.56"/>
<polygon fill="black" stroke="black" points="37.5,-262.93 27.59,-259.18 33,-268.29 37.5,-262.93"/>
</g>
<!-- Node9 -->
<g id="node8" class="node">
<title>Node9</title>
<g id="a_node8"><a xlink:href="group__DiscordAPIGuildScheduledEvent.html" target="_top" xlink:title="Guild Scheduled Event&#39;s public API supported by Concord.">
<polygon fill="none" stroke="black" points="194,-278 68,-278 68,-259 194,-259 194,-278"/>
<text text-anchor="middle" x="131" y="-266" font-family="Helvetica,sans-Serif" font-size="10.00">Guild Scheduled Event</text>
</a>
</g>
</g>
<!-- Node1&#45;&gt;Node9 -->
<g id="edge8" class="edge">
<title>Node1&#45;&gt;Node9</title>
<path fill="none" stroke="black" d="M42.29,-253.75C51.57,-255.31 62.49,-257.15 73.42,-258.99"/>
<polygon fill="black" stroke="black" points="42.68,-250.27 32.24,-252.06 41.52,-257.17 42.68,-250.27"/>
</g>
<!-- Node10 -->
<g id="node9" class="node">
<title>Node10</title>
<g id="a_node9"><a xlink:href="group__DiscordAPIGuildTemplate.html" target="_top" xlink:title="Guild Template&#39;s public API supported by Concord.">
<polygon fill="none" stroke="black" points="176,-241 86,-241 86,-222 176,-222 176,-241"/>
<text text-anchor="middle" x="131" y="-229" font-family="Helvetica,sans-Serif" font-size="10.00">Guild Template</text>
</a>
</g>
</g>
<!-- Node1&#45;&gt;Node10 -->
<g id="edge9" class="edge">
<title>Node1&#45;&gt;Node10</title>
<path fill="none" stroke="black" d="M42.19,-245.49C55.02,-243.44 71.01,-240.9 85.81,-238.54"/>
<polygon fill="black" stroke="black" points="41.56,-242.04 32.24,-247.07 42.67,-248.96 41.56,-242.04"/>
</g>
<!-- Node2 -->
<g id="node10" class="node">
<title>Node2</title>
<g id="a_node10"><a xlink:href="group__DiscordAPIInteractions.html" target="_top" xlink:title="Interactions public API supported by Concord.">
<polygon fill="none" stroke="black" points="168,-204 94,-204 94,-185 168,-185 168,-204"/>
<text text-anchor="middle" x="131" y="-192" font-family="Helvetica,sans-Serif" font-size="10.00">Interactions</text>
</a>
</g>
</g>
<!-- Node1&#45;&gt;Node2 -->
<g id="edge1" class="edge">
<title>Node1&#45;&gt;Node2</title>
<path fill="none" stroke="black" d="M36.51,-233.52C45.65,-226.63 56.94,-218.93 68,-213.5 76.09,-209.53 85.17,-206.19 93.85,-203.47"/>
<polygon fill="black" stroke="black" points="34.22,-230.87 28.48,-239.78 38.52,-236.39 34.22,-230.87"/>
</g>
<!-- Node11 -->
<g id="node11" class="node">
<title>Node11</title>
<g id="a_node11"><a xlink:href="group__DiscordAPIInvite.html" target="_top" xlink:title="Invite&#39;s public API supported by Concord.">
<polygon fill="none" stroke="black" points="153,-167 109,-167 109,-148 153,-148 153,-167"/>
<text text-anchor="middle" x="131" y="-155" font-family="Helvetica,sans-Serif" font-size="10.00">Invite</text>
</a>
</g>
</g>
<!-- Node1&#45;&gt;Node11 -->
<g id="edge10" class="edge">
<title>Node1&#45;&gt;Node11</title>
<path fill="none" stroke="black" d="M25.66,-230.65C34.2,-214.09 48.75,-190.51 68,-176.5 80.01,-167.75 96.12,-162.98 108.91,-160.4"/>
<polygon fill="black" stroke="black" points="22.39,-229.39 21.14,-239.91 28.68,-232.46 22.39,-229.39"/>
</g>
<!-- Node12 -->
<g id="node12" class="node">
<title>Node12</title>
<g id="a_node12"><a xlink:href="group__DiscordAPIOAuth2.html" target="_top" xlink:title="OAuth2&#39;s public API supported by Concord.">
<polygon fill="none" stroke="black" points="161,-130 101,-130 101,-111 161,-111 161,-130"/>
<text text-anchor="middle" x="131" y="-118" font-family="Helvetica,sans-Serif" font-size="10.00">Gateway</text>
</a>
</g>
</g>
<!-- Node1&#45;&gt;Node12 -->
<g id="edge11" class="edge">
<title>Node1&#45;&gt;Node12</title>
<path fill="none" stroke="black" d="M20.91,-230.04C26.84,-205.46 40.48,-163.49 68,-139.5 77.16,-131.51 89.63,-126.88 100.98,-124.2"/>
<polygon fill="black" stroke="black" points="17.45,-229.46 18.7,-239.98 24.28,-230.98 17.45,-229.46"/>
</g>
<!-- Node13 -->
<g id="node13" class="node">
<title>Node13</title>
<g id="a_node13"><a xlink:href="group__DiscordAPIUser.html" target="_top" xlink:title="User&#39;s public API supported by Concord.">
<polygon fill="none" stroke="black" points="150.5,-93 111.5,-93 111.5,-74 150.5,-74 150.5,-93"/>
<text text-anchor="middle" x="131" y="-81" font-family="Helvetica,sans-Serif" font-size="10.00">User</text>
</a>
</g>
</g>
<!-- Node1&#45;&gt;Node13 -->
<g id="edge12" class="edge">
<title>Node1&#45;&gt;Node13</title>
<path fill="none" stroke="black" d="M18.32,-229.53C21.48,-198.08 32.15,-137.06 68,-102.5 79.67,-91.25 97.83,-86.64 111.48,-84.77"/>
<polygon fill="black" stroke="black" points="14.82,-229.41 17.47,-239.67 21.8,-230 14.82,-229.41"/>
</g>
<!-- Node14 -->
<g id="node14" class="node">
<title>Node14</title>
<g id="a_node14"><a xlink:href="group__DiscordAPIVoice.html" target="_top" xlink:title="Voice&#39;s public API supported by Concord.">
<polygon fill="none" stroke="black" points="152.5,-56 109.5,-56 109.5,-37 152.5,-37 152.5,-56"/>
<text text-anchor="middle" x="131" y="-44" font-family="Helvetica,sans-Serif" font-size="10.00">Voice</text>
</a>
</g>
</g>
<!-- Node1&#45;&gt;Node14 -->
<g id="edge13" class="edge">
<title>Node1&#45;&gt;Node14</title>
<path fill="none" stroke="black" d="M16.64,-229.9C17.05,-192.67 23.37,-111.35 68,-65.5 78.76,-54.45 95.76,-49.78 109.24,-47.84"/>
<polygon fill="black" stroke="black" points="13.14,-229.96 16.66,-239.95 20.14,-229.94 13.14,-229.96"/>
</g>
<!-- Node15 -->
<g id="node15" class="node">
<title>Node15</title>
<g id="a_node15"><a xlink:href="group__DiscordAPIWebhook.html" target="_top" xlink:title="Webhook&#39;s public API supported by Concord.">
<polygon fill="none" stroke="black" points="162,-19 100,-19 100,0 162,0 162,-19"/>
<text text-anchor="middle" x="131" y="-7" font-family="Helvetica,sans-Serif" font-size="10.00">Webhook</text>
</a>
</g>
</g>
<!-- Node1&#45;&gt;Node15 -->
<g id="edge14" class="edge">
<title>Node1&#45;&gt;Node15</title>
<path fill="none" stroke="black" d="M19.06,-229.58C24.47,-180.94 40.6,-57.9 68,-28.5 76.21,-19.69 88.39,-14.92 99.79,-12.36"/>
<polygon fill="black" stroke="black" points="15.55,-229.44 17.96,-239.76 22.51,-230.19 15.55,-229.44"/>
</g>
</g>
</svg>
