<?xml version="1.0" encoding="UTF-8" standalone="no"?>
<!DOCTYPE svg PUBLIC "-//W3C//DTD SVG 1.1//EN"
 "http://www.w3.org/Graphics/SVG/1.1/DTD/svg11.dtd">
<!-- Generated by graphviz version 2.43.0 (0)
 -->
<!-- Title: API Pages: 1 -->
<svg width="202pt" height="471pt"
 viewBox="0.00 0.00 202.00 471.00" xmlns="http://www.w3.org/2000/svg" xmlns:xlink="http://www.w3.org/1999/xlink">
<g id="graph0" class="graph" transform="scale(1 1) rotate(0) translate(4 467)">
<title>API</title>
<!-- Node1 -->
<g id="node1" class="node">
<title>Node1</title>
<g id="a_node1"><a xlink:title="The Discord public API supported by Concord.">
<polygon fill="#bfbfbf" stroke="black" points="32,-241 0,-241 0,-222 32,-222 32,-241"/>
<text text-anchor="middle" x="16" y="-229" font-family="Helvetica,sans-Serif" font-size="10.00">API</text>
</a>
</g>
</g>
<!-- Node3 -->
<g id="node2" class="node">
<title>Node3</title>
<g id="a_node2"><a xlink:href="group__DiscordAPIAuditLog.html" target="_top" xlink:title="Audit Log&#39;s public API supported by Concord.">
<polygon fill="none" stroke="black" points="162,-463 100,-463 100,-444 162,-444 162,-463"/>
<text text-anchor="middle" x="131" y="-451" font-family="Helvetica,sans-Serif" font-size="10.00">Audit Log</text>
</a>
</g>
</g>
<!-- Node1&#45;&gt;Node3 -->
<g id="edge2" class="edge">
<title>Node1&#45;&gt;Node3</title>
<path fill="none" stroke="black" d="M19.45,-251.43C25.47,-297.4 42.44,-408.96 68,-435.5 76.32,-444.14 88.52,-448.7 99.89,-451.08"/>
<polygon fill="black" stroke="black" points="22.88,-250.73 18.15,-241.25 15.94,-251.61 22.88,-250.73"/>
</g>
<!-- Node4 -->
<g id="node3" class="node">
<title>Node4</title>
<g id="a_node3"><a xlink:href="group__DiscordAPIAutoModeration.html" target="_top" xlink:title="Auto Moderation public API supported by Concord.">
<polygon fill="none" stroke="black" points="180,-426 82,-426 82,-407 180,-407 180,-426"/>
<text text-anchor="middle" x="131" y="-414" font-family="Helvetica,sans-Serif" font-size="10.00">Auto Moderation</text>
</a>
</g>
</g>
<!-- Node1&#45;&gt;Node4 -->
<g id="edge3" class="edge">
<title>Node1&#45;&gt;Node4</title>
<path fill="none" stroke="black" d="M17.25,-251.25C18.8,-285.98 27.08,-358.15 68,-398.5 71.99,-402.44 76.79,-405.52 81.92,-407.94"/>
<polygon fill="black" stroke="black" points="20.75,-250.89 16.95,-241 13.75,-251.1 20.75,-250.89"/>
</g>
<!-- Node5 -->
<g id="node4" class="node">
<title>Node5</title>
<g id="a_node4"><a xlink:href="group__DiscordAPIChannel.html" target="_top" xlink:title="Channel&#39;s public API supported by Concord.">
<polygon fill="none" stroke="black" points="159,-389 103,-389 103,-370 159,-370 159,-389"/>
<text text-anchor="middle" x="131" y="-377" font-family="Helvetica,sans-Serif" font-size="10.00">Channel</text>
</a>
</g>
</g>
<!-- Node1&#45;&gt;Node5 -->
<g id="edge4" class="edge">
<title>Node1&#45;&gt;Node5</title>
<path fill="none" stroke="black" d="M19.29,-251.25C23.63,-279.71 35.75,-332.07 68,-361.5 77.52,-370.19 91,-374.7 102.96,-377.04"/>
<polygon fill="black" stroke="black" points="22.75,-250.72 17.94,-241.29 15.81,-251.67 22.75,-250.72"/>
</g>
<!-- Node6 -->
<g id="node5" class="node">
<title>Node6</title>
<g id="a_node5"><a xlink:href="group__DiscordAPIEmoji.html" target="_top" xlink:title="Emoji&#39;s public API supported by Concord.">
<polygon fill="none" stroke="black" points="153,-352 109,-352 109,-333 153,-333 153,-352"/>
<text text-anchor="middle" x="131" y="-340" font-family="Helvetica,sans-Serif" font-size="10.00">Emoji</text>
</a>
</g>
</g>
<!-- Node1&#45;&gt;Node6 -->
<g id="edge5" class="edge">
<title>Node1&#45;&gt;Node6</title>
<path fill="none" stroke="black" d="M22.64,-250.83C29.79,-271.97 44.16,-305.38 68,-324.5 79.63,-333.83 95.91,-338.32 108.87,-340.49"/>
<polygon fill="black" stroke="black" points="25.98,-249.77 19.62,-241.29 19.3,-251.88 25.98,-249.77"/>
</g>
<!-- Node7 -->
<g id="node6" class="node">
<title>Node7</title>
<g id="a_node6"><a xlink:href="group__DiscordAPIGateway.html" target="_top" xlink:title="Gateway&#39;s public API supported by Concord.">
<polygon fill="none" stroke="black" points="161,-315 101,-315 101,-296 161,-296 161,-315"/>
<text text-anchor="middle" x="131" y="-303" font-family="Helvetica,sans-Serif" font-size="10.00">Gateway</text>
</a>
</g>
</g>
<!-- Node1&#45;&gt;Node7 -->
<g id="edge6" class="edge">
<title>Node1&#45;&gt;Node7</title>
<path fill="none" stroke="black" d="M29.3,-249.57C38.59,-261.92 52.37,-277.76 68,-287.5 77.89,-293.67 89.98,-297.79 100.85,-300.52"/>
<polygon fill="black" stroke="black" points="32.05,-247.4 23.37,-241.33 26.37,-251.49 32.05,-247.4"/>
</g>
<!-- Node8 -->
<g id="node7" class="node">
<title>Node8</title>
<g id="a_node7"><a xlink:href="group__DiscordAPIGuild.html" target="_top" xlink:title="Guild&#39;s public API supported by Concord.">
<polygon fill="none" stroke="black" points="152,-278 110,-278 110,-259 152,-259 152,-278"/>
<text text-anchor="middle" x="131" y="-266" font-family="Helvetica,sans-Serif" font-size="10.00">Guild</text>
</a>
</g>
</g>
<!-- Node1&#45;&gt;Node8 -->
<g id="edge7" class="edge">
<title>Node1&#45;&gt;Node8</title>
<path fill="none" stroke="black" d="M41.59,-241.08C49.93,-244.22 59.33,-247.63 68,-250.5 81.83,-255.08 97.61,-259.65 109.78,-263.04"/>
<polygon fill="black" stroke="black" points="42.66,-237.74 32.07,-237.45 40.17,-244.28 42.66,-237.74"/>
</g>
<!-- Node9 -->
<g id="node8" class="node">
<title>Node9</title>
<g id="a_node8"><a xlink:href="group__DiscordAPIGuildScheduledEvent.html" target="_top" xlink:title="Guild Scheduled Event&#39;s public API supported by Concord.">
<polygon fill="none" stroke="black" points="194,-241 68,-241 68,-222 194,-222 194,-241"/>
<text text-anchor="middle" x="131" y="-229" font-family="Helvetica,sans-Serif" font-size="10.00">Guild Scheduled Event</text>
</a>
</g>
</g>
<!-- Node1&#45;&gt;Node9 -->
<g id="edge8" class="edge">
<title>Node1&#45;&gt;Node9</title>
<path fill="none" stroke="black" d="M42.27,-231.5C49.97,-231.5 58.8,-231.5 67.82,-231.5"/>
<polygon fill="black" stroke="black" points="42.24,-228 32.24,-231.5 42.24,-235 42.24,-228"/>
</g>
<!-- Node10 -->
<g id="node9" class="node">
<title>Node10</title>
<g id="a_node9"><a xlink:href="group__DiscordAPIGuildTemplate.html" target="_top" xlink:title="Guild Template&#39;s public API supported by Concord.">
<polygon fill="none" stroke="black" points="176,-204 86,-204 86,-185 176,-185 176,-204"/>
<text text-anchor="middle" x="131" y="-192" font-family="Helvetica,sans-Serif" font-size="10.00">Guild Template</text>
</a>
</g>
</g>
<!-- Node1&#45;&gt;Node10 -->
<g id="edge9" class="edge">
<title>Node1&#45;&gt;Node10</title>
<path fill="none" stroke="black" d="M41.65,-222.56C49.99,-219.6 59.38,-216.34 68,-213.5 77.73,-210.29 88.38,-206.97 98.06,-204.01"/>
<polygon fill="black" stroke="black" points="40.35,-219.31 32.12,-225.98 42.71,-225.9 40.35,-219.31"/>
</g>
<!-- Node2 -->
<g id="node10" class="node">
<title>Node2</title>
<g id="a_node10"><a xlink:href="group__DiscordAPIInteractions.html" target="_top" xlink:title="Interactions public API supported by Concord.">
<polygon fill="none" stroke="black" points="168,-167 94,-167 94,-148 168,-148 168,-167"/>
<text text-anchor="middle" x="131" y="-155" font-family="Helvetica,sans-Serif" font-size="10.00">Interactions</text>
</a>
</g>
</g>
<!-- Node1&#45;&gt;Node2 -->
<g id="edge1" class="edge">
<title>Node1&#45;&gt;Node2</title>
<path fill="none" stroke="black" d="M29.41,-213.83C38.75,-201.73 52.55,-186.19 68,-176.5 75.82,-171.59 84.99,-167.88 93.85,-165.1"/>
<polygon fill="black" stroke="black" points="26.58,-211.77 23.44,-221.89 32.2,-215.94 26.58,-211.77"/>
</g>
<!-- Node11 -->
<g id="node11" class="node">
<title>Node11</title>
<g id="a_node11"><a xlink:href="group__DiscordAPIInvite.html" target="_top" xlink:title="Invite&#39;s public API supported by Concord.">
<polygon fill="none" stroke="black" points="153,-130 109,-130 109,-111 153,-111 153,-130"/>
<text text-anchor="middle" x="131" y="-118" font-family="Helvetica,sans-Serif" font-size="10.00">Invite</text>
</a>
</g>
</g>
<!-- Node1&#45;&gt;Node11 -->
<g id="edge10" class="edge">
<title>Node1&#45;&gt;Node11</title>
<path fill="none" stroke="black" d="M22.85,-212.16C30.13,-191.29 44.56,-158.49 68,-139.5 79.63,-130.07 95.91,-125.31 108.87,-122.92"/>
<polygon fill="black" stroke="black" points="19.46,-211.26 19.68,-221.85 26.12,-213.43 19.46,-211.26"/>
</g>
<!-- Node12 -->
<g id="node12" class="node">
<title>Node12</title>
<g id="a_node12"><a xlink:href="group__DiscordAPIUser.html" target="_top" xlink:title="User&#39;s public API supported by Concord.">
<polygon fill="none" stroke="black" points="150.5,-93 111.5,-93 111.5,-74 150.5,-74 150.5,-93"/>
<text text-anchor="middle" x="131" y="-81" font-family="Helvetica,sans-Serif" font-size="10.00">User</text>
</a>
</g>
</g>
<!-- Node1&#45;&gt;Node12 -->
<g id="edge11" class="edge">
<title>Node1&#45;&gt;Node12</title>
<path fill="none" stroke="black" d="M19.45,-211.59C23.98,-183.34 36.28,-131.8 68,-102.5 79.82,-91.58 97.78,-86.93 111.34,-84.95"/>
<polygon fill="black" stroke="black" points="15.94,-211.43 17.99,-221.82 22.87,-212.42 15.94,-211.43"/>
</g>
<!-- Node13 -->
<g id="node13" class="node">
<title>Node13</title>
<g id="a_node13"><a xlink:href="group__DiscordAPIVoice.html" target="_top" xlink:title="Voice&#39;s public API supported by Concord.">
<polygon fill="none" stroke="black" points="152.5,-56 109.5,-56 109.5,-37 152.5,-37 152.5,-56"/>
<text text-anchor="middle" x="131" y="-44" font-family="Helvetica,sans-Serif" font-size="10.00">Voice</text>
</a>
</g>
</g>
<!-- Node1&#45;&gt;Node13 -->
<g id="edge12" class="edge">
<title>Node1&#45;&gt;Node13</title>
<path fill="none" stroke="black" d="M17.38,-211.44C19.13,-176.82 27.76,-105.71 68,-65.5 78.91,-54.6 95.9,-49.92 109.34,-47.93"/>
<polygon fill="black" stroke="black" points="13.87,-211.56 17.01,-221.68 20.87,-211.81 13.87,-211.56"/>
</g>
<!-- Node14 -->
<g id="node14" class="node">
<title>Node14</title>
<g id="a_node14"><a xlink:href="group__DiscordAPIWebhook.html" target="_top" xlink:title="Webhook&#39;s public API supported by Concord.">
<polygon fill="none" stroke="black" points="162,-19 100,-19 100,0 162,0 162,-19"/>
<text text-anchor="middle" x="131" y="-7" font-family="Helvetica,sans-Serif" font-size="10.00">Webhook</text>
</a>
</g>
</g>
<!-- Node1&#45;&gt;Node14 -->
<g id="edge13" class="edge">
<title>Node1&#45;&gt;Node14</title>
<path fill="none" stroke="black" d="M19.49,-211.69C25.6,-166 42.73,-55.09 68,-28.5 76.3,-19.77 88.49,-15.01 99.87,-12.44"/>
<polygon fill="black" stroke="black" points="15.99,-211.44 18.17,-221.81 22.93,-212.35 15.99,-211.44"/>
</g>
</g>
</svg>
