<?xml version="1.0" encoding="UTF-8" standalone="no"?>
<!DOCTYPE svg PUBLIC "-//W3C//DTD SVG 1.1//EN"
 "http://www.w3.org/Graphics/SVG/1.1/DTD/svg11.dtd">
<!-- Generated by graphviz version 2.43.0 (0)
 -->
<!-- Title: docs/api/guild_scheduled_event.h Pages: 1 -->
<svg width="652pt" height="151pt"
 viewBox="0.00 0.00 652.29 151.00" xmlns="http://www.w3.org/2000/svg" xmlns:xlink="http://www.w3.org/1999/xlink">
<g id="graph0" class="graph" transform="scale(1 1) rotate(0) translate(4 147)">
<title>docs/api/guild_scheduled_event.h</title>
<!-- Node1 -->
<g id="node1" class="node">
<title>Node1</title>
<g id="a_node1"><a xlink:title="Generated code.">
<polygon fill="#bfbfbf" stroke="black" points="218.79,-112.5 218.79,-142.5 357.79,-142.5 357.79,-112.5 218.79,-112.5"/>
<text text-anchor="start" x="226.79" y="-130.5" font-family="Helvetica,sans-Serif" font-size="10.00">docs/api/guild_scheduled</text>
<text text-anchor="middle" x="288.29" y="-119.5" font-family="Helvetica,sans-Serif" font-size="10.00">_event.h</text>
</a>
</g>
</g>
<!-- Node2 -->
<g id="node2" class="node">
<title>Node2</title>
<g id="a_node2"><a xlink:title=" ">
<polygon fill="none" stroke="#bfbfbf" points="150.29,-0.5 150.29,-19.5 206.29,-19.5 206.29,-0.5 150.29,-0.5"/>
<text text-anchor="middle" x="178.29" y="-7.5" font-family="Helvetica,sans-Serif" font-size="10.00">stddef.h</text>
</a>
</g>
</g>
<!-- Node1&#45;&gt;Node2 -->
<g id="edge1" class="edge">
<title>Node1&#45;&gt;Node2</title>
<path fill="none" stroke="midnightblue" d="M218.55,-123.83C144.51,-119.35 34.58,-107.46 8.29,-76 -29.64,-30.62 78.77,-16.85 139.81,-12.73"/>
<polygon fill="midnightblue" stroke="midnightblue" points="140.12,-16.22 149.88,-12.11 139.69,-9.23 140.12,-16.22"/>
</g>
<!-- Node3 -->
<g id="node3" class="node">
<title>Node3</title>
<g id="a_node3"><a xlink:title=" ">
<polygon fill="none" stroke="#bfbfbf" points="17.29,-56.5 17.29,-75.5 79.29,-75.5 79.29,-56.5 17.29,-56.5"/>
<text text-anchor="middle" x="48.29" y="-63.5" font-family="Helvetica,sans-Serif" font-size="10.00">stdbool.h</text>
</a>
</g>
</g>
<!-- Node1&#45;&gt;Node3 -->
<g id="edge2" class="edge">
<title>Node1&#45;&gt;Node3</title>
<path fill="none" stroke="midnightblue" d="M231.72,-112.47C187.99,-101.63 128.49,-86.88 89.27,-77.16"/>
<polygon fill="midnightblue" stroke="midnightblue" points="90.06,-73.75 79.51,-74.74 88.38,-80.54 90.06,-73.75"/>
</g>
<!-- Node4 -->
<g id="node4" class="node">
<title>Node4</title>
<g id="a_node4"><a xlink:title=" ">
<polygon fill="none" stroke="#bfbfbf" points="97.79,-56.5 97.79,-75.5 162.79,-75.5 162.79,-56.5 97.79,-56.5"/>
<text text-anchor="middle" x="130.29" y="-63.5" font-family="Helvetica,sans-Serif" font-size="10.00">inttypes.h</text>
</a>
</g>
</g>
<!-- Node1&#45;&gt;Node4 -->
<g id="edge3" class="edge">
<title>Node1&#45;&gt;Node4</title>
<path fill="none" stroke="midnightblue" d="M250.84,-112.4C224.1,-102.33 188.47,-88.91 162.89,-79.28"/>
<polygon fill="midnightblue" stroke="midnightblue" points="163.87,-75.91 153.28,-75.66 161.4,-82.46 163.87,-75.91"/>
</g>
<!-- Node5 -->
<g id="node5" class="node">
<title>Node5</title>
<g id="a_node5"><a xlink:title=" ">
<polygon fill="none" stroke="#bfbfbf" points="180.79,-56.5 180.79,-75.5 235.79,-75.5 235.79,-56.5 180.79,-56.5"/>
<text text-anchor="middle" x="208.29" y="-63.5" font-family="Helvetica,sans-Serif" font-size="10.00">carray.h</text>
</a>
</g>
</g>
<!-- Node1&#45;&gt;Node5 -->
<g id="edge4" class="edge">
<title>Node1&#45;&gt;Node5</title>
<path fill="none" stroke="midnightblue" d="M269.33,-112.4C256.87,-103.13 240.59,-91.03 227.98,-81.65"/>
<polygon fill="midnightblue" stroke="midnightblue" points="230.04,-78.82 219.93,-75.66 225.86,-84.43 230.04,-78.82"/>
</g>
<!-- Node6 -->
<g id="node6" class="node">
<title>Node6</title>
<g id="a_node6"><a xlink:href="cog-utils_8h_source.html" target="_top" xlink:title=" ">
<polygon fill="none" stroke="red" points="254.29,-56.5 254.29,-75.5 322.29,-75.5 322.29,-56.5 254.29,-56.5"/>
<text text-anchor="middle" x="288.29" y="-63.5" font-family="Helvetica,sans-Serif" font-size="10.00">cog&#45;utils.h</text>
</a>
</g>
</g>
<!-- Node1&#45;&gt;Node6 -->
<g id="edge5" class="edge">
<title>Node1&#45;&gt;Node6</title>
<path fill="none" stroke="midnightblue" d="M288.29,-112.4C288.29,-104.47 288.29,-94.46 288.29,-85.86"/>
<polygon fill="midnightblue" stroke="midnightblue" points="291.79,-85.66 288.29,-75.66 284.79,-85.66 291.79,-85.66"/>
</g>
<!-- Node9 -->
<g id="node7" class="node">
<title>Node9</title>
<g id="a_node7"><a xlink:href="types_8h.html" target="_top" xlink:title=" ">
<polygon fill="none" stroke="red" points="340.79,-56.5 340.79,-75.5 393.79,-75.5 393.79,-56.5 340.79,-56.5"/>
<text text-anchor="middle" x="367.29" y="-63.5" font-family="Helvetica,sans-Serif" font-size="10.00">types.h</text>
</a>
</g>
</g>
<!-- Node1&#45;&gt;Node9 -->
<g id="edge6" class="edge">
<title>Node1&#45;&gt;Node9</title>
<path fill="none" stroke="midnightblue" d="M307.01,-112.4C319.2,-103.22 335.08,-91.26 347.48,-81.92"/>
<polygon fill="midnightblue" stroke="midnightblue" points="349.91,-84.47 355.79,-75.66 345.7,-78.88 349.91,-84.47"/>
</g>
<!-- Node10 -->
<g id="node8" class="node">
<title>Node10</title>
<g id="a_node8"><a xlink:title=" ">
<polygon fill="none" stroke="#bfbfbf" points="412.29,-56.5 412.29,-75.5 462.29,-75.5 462.29,-56.5 412.29,-56.5"/>
<text text-anchor="middle" x="437.29" y="-63.5" font-family="Helvetica,sans-Serif" font-size="10.00">jsmn.h</text>
</a>
</g>
</g>
<!-- Node1&#45;&gt;Node10 -->
<g id="edge8" class="edge">
<title>Node1&#45;&gt;Node10</title>
<path fill="none" stroke="midnightblue" d="M323.6,-112.4C348.71,-102.37 382.13,-89.03 406.22,-79.4"/>
<polygon fill="midnightblue" stroke="midnightblue" points="407.62,-82.62 415.61,-75.66 405.02,-76.12 407.62,-82.62"/>
</g>
<!-- Node11 -->
<g id="node9" class="node">
<title>Node11</title>
<g id="a_node9"><a xlink:title=" ">
<polygon fill="none" stroke="#bfbfbf" points="480.79,-56.5 480.79,-75.5 551.79,-75.5 551.79,-56.5 480.79,-56.5"/>
<text text-anchor="middle" x="516.29" y="-63.5" font-family="Helvetica,sans-Serif" font-size="10.00">jsmn&#45;find.h</text>
</a>
</g>
</g>
<!-- Node1&#45;&gt;Node11 -->
<g id="edge9" class="edge">
<title>Node1&#45;&gt;Node11</title>
<path fill="none" stroke="midnightblue" d="M342.03,-112.47C382.23,-101.99 436.44,-87.84 473.67,-78.12"/>
<polygon fill="midnightblue" stroke="midnightblue" points="474.9,-81.42 483.69,-75.51 473.13,-74.64 474.9,-81.42"/>
</g>
<!-- Node12 -->
<g id="node10" class="node">
<title>Node12</title>
<g id="a_node10"><a xlink:title=" ">
<polygon fill="none" stroke="#bfbfbf" points="570.29,-56.5 570.29,-75.5 644.29,-75.5 644.29,-56.5 570.29,-56.5"/>
<text text-anchor="middle" x="607.29" y="-63.5" font-family="Helvetica,sans-Serif" font-size="10.00">json&#45;build.h</text>
</a>
</g>
</g>
<!-- Node1&#45;&gt;Node12 -->
<g id="edge10" class="edge">
<title>Node1&#45;&gt;Node12</title>
<path fill="none" stroke="midnightblue" d="M357.89,-113.83C410.71,-104.17 485.41,-90.4 560.08,-76.22"/>
<polygon fill="midnightblue" stroke="midnightblue" points="560.97,-79.61 570.14,-74.3 559.66,-72.73 560.97,-79.61"/>
</g>
<!-- Node9&#45;&gt;Node2 -->
<g id="edge7" class="edge">
<title>Node9&#45;&gt;Node2</title>
<path fill="none" stroke="midnightblue" d="M340.61,-57.38C308.15,-48.1 253.12,-32.38 216.25,-21.85"/>
<polygon fill="midnightblue" stroke="midnightblue" points="216.95,-18.41 206.37,-19.02 215.02,-25.14 216.95,-18.41"/>
</g>
</g>
</svg>
