<?xml version="1.0" encoding="UTF-8" standalone="no"?>
<!DOCTYPE svg PUBLIC "-//W3C//DTD SVG 1.1//EN"
 "http://www.w3.org/Graphics/SVG/1.1/DTD/svg11.dtd">
<!-- Generated by graphviz version 2.43.0 (0)
 -->
<!-- Title: discord_gateway Pages: 1 -->
<svg width="515pt" height="173pt"
 viewBox="0.00 0.00 514.50 173.00" xmlns="http://www.w3.org/2000/svg" xmlns:xlink="http://www.w3.org/1999/xlink">
<g id="graph0" class="graph" transform="scale(1 1) rotate(0) translate(4 169)">
<title>discord_gateway</title>
<!-- Node1 -->
<g id="node1" class="node">
<title>Node1</title>
<g id="a_node1"><a xlink:title="The handle used for interfacing with Discord&#39;s Gateway API.">
<polygon fill="#bfbfbf" stroke="black" points="157.5,-78.5 157.5,-97.5 256.5,-97.5 256.5,-78.5 157.5,-78.5"/>
<text text-anchor="middle" x="207" y="-85.5" font-family="Helvetica,sans-Serif" font-size="10.00">discord_gateway</text>
</a>
</g>
</g>
<!-- Node21 -->
<g id="node6" class="node">
<title>Node21</title>
<g id="a_node6"><a xlink:href="structdiscord.html" target="_top" xlink:title="The Discord client handler.">
<polygon fill="none" stroke="red" points="181,-0.5 181,-19.5 233,-19.5 233,-0.5 181,-0.5"/>
<text text-anchor="middle" x="207" y="-7.5" font-family="Helvetica,sans-Serif" font-size="10.00">discord</text>
</a>
</g>
</g>
<!-- Node1&#45;&gt;Node21 -->
<g id="edge6" class="edge">
<title>Node1&#45;&gt;Node21</title>
<path fill="none" stroke="#9a32cd" stroke-dasharray="5,2" d="M190.6,-70.33C188.31,-67.13 186.29,-63.63 185,-60 181.72,-50.79 181.72,-47.21 185,-38 187.43,-31.16 192.42,-24.8 197.03,-19.98"/>
<polygon fill="#9a32cd" stroke="#9a32cd" points="187.93,-72.6 197.03,-78.02 193.3,-68.11 187.93,-72.6"/>
<text text-anchor="middle" x="194" y="-46.5" font-family="Helvetica,sans-Serif" font-size="10.00"> gw</text>
</g>
<!-- Node2 -->
<g id="node2" class="node">
<title>Node2</title>
<g id="a_node2"><a xlink:href="structwebsockets.html" target="_top" xlink:title="Opaque handler for WebSockets.">
<polygon fill="none" stroke="black" points="0,-145.5 0,-164.5 74,-164.5 74,-145.5 0,-145.5"/>
<text text-anchor="middle" x="37" y="-152.5" font-family="Helvetica,sans-Serif" font-size="10.00">websockets</text>
</a>
</g>
</g>
<!-- Node2&#45;&gt;Node1 -->
<g id="edge1" class="edge">
<title>Node2&#45;&gt;Node1</title>
<path fill="none" stroke="#9a32cd" stroke-dasharray="5,2" d="M68.98,-141.77C102.72,-128.87 155.02,-108.88 184.6,-97.56"/>
<polygon fill="#9a32cd" stroke="#9a32cd" points="67.67,-138.53 59.57,-145.37 70.17,-145.07 67.67,-138.53"/>
<text text-anchor="middle" x="141.5" y="-119" font-family="Helvetica,sans-Serif" font-size="10.00"> ws</text>
</g>
<!-- Node3 -->
<g id="node3" class="node">
<title>Node3</title>
<g id="a_node3"><a xlink:href="structdiscord__identify.html" target="_top" xlink:title=" ">
<polygon fill="none" stroke="red" points="92,-145.5 92,-164.5 186,-164.5 186,-145.5 92,-145.5"/>
<text text-anchor="middle" x="139" y="-152.5" font-family="Helvetica,sans-Serif" font-size="10.00">discord_identify</text>
</a>
</g>
</g>
<!-- Node3&#45;&gt;Node1 -->
<g id="edge2" class="edge">
<title>Node3&#45;&gt;Node1</title>
<path fill="none" stroke="#9a32cd" stroke-dasharray="5,2" d="M155.74,-138C169.08,-125.25 187.23,-107.89 197.97,-97.63"/>
<polygon fill="#9a32cd" stroke="#9a32cd" points="152.98,-135.79 148.17,-145.23 157.82,-140.85 152.98,-135.79"/>
<text text-anchor="middle" x="184.5" y="-119" font-family="Helvetica,sans-Serif" font-size="10.00"> id</text>
</g>
<!-- Node18 -->
<g id="node4" class="node">
<title>Node18</title>
<g id="a_node4"><a xlink:href="structdiscord__gateway__session.html" target="_top" xlink:title="The handle for storing the Discord Gateway session.">
<polygon fill="none" stroke="red" points="204.5,-145.5 204.5,-164.5 345.5,-164.5 345.5,-145.5 204.5,-145.5"/>
<text text-anchor="middle" x="275" y="-152.5" font-family="Helvetica,sans-Serif" font-size="10.00">discord_gateway_session</text>
</a>
</g>
</g>
<!-- Node18&#45;&gt;Node1 -->
<g id="edge3" class="edge">
<title>Node18&#45;&gt;Node1</title>
<path fill="none" stroke="#9a32cd" stroke-dasharray="5,2" d="M258.26,-138C244.92,-125.25 226.77,-107.89 216.03,-97.63"/>
<polygon fill="#9a32cd" stroke="#9a32cd" points="256.18,-140.85 265.83,-145.23 261.02,-135.79 256.18,-140.85"/>
<text text-anchor="middle" x="266" y="-119" font-family="Helvetica,sans-Serif" font-size="10.00"> session</text>
</g>
<!-- Node20 -->
<g id="node5" class="node">
<title>Node20</title>
<g id="a_node5"><a xlink:href="structdiscord__gateway__payload.html" target="_top" xlink:title="The handle for storing the Discord response payload.">
<polygon fill="none" stroke="black" points="363.5,-145.5 363.5,-164.5 506.5,-164.5 506.5,-145.5 363.5,-145.5"/>
<text text-anchor="middle" x="435" y="-152.5" font-family="Helvetica,sans-Serif" font-size="10.00">discord_gateway_payload</text>
</a>
</g>
</g>
<!-- Node20&#45;&gt;Node1 -->
<g id="edge4" class="edge">
<title>Node20&#45;&gt;Node1</title>
<path fill="none" stroke="#9a32cd" stroke-dasharray="5,2" d="M394.98,-142.59C349.88,-129.73 277.57,-109.12 237.04,-97.56"/>
<polygon fill="#9a32cd" stroke="#9a32cd" points="394.15,-145.99 404.72,-145.37 396.07,-139.26 394.15,-145.99"/>
<text text-anchor="middle" x="355.5" y="-119" font-family="Helvetica,sans-Serif" font-size="10.00"> payload</text>
</g>
<!-- Node21&#45;&gt;Node1 -->
<g id="edge5" class="edge">
<title>Node21&#45;&gt;Node1</title>
<path fill="none" stroke="#9a32cd" stroke-dasharray="5,2" d="M207,-29.64C207,-45.13 207,-66.49 207,-78.28"/>
<polygon fill="#9a32cd" stroke="#9a32cd" points="210.5,-29.62 207,-19.62 203.5,-29.62 210.5,-29.62"/>
<text text-anchor="middle" x="231" y="-52" font-family="Helvetica,sans-Serif" font-size="10.00"> cbs</text>
<text text-anchor="middle" x="231" y="-41" font-family="Helvetica,sans-Serif" font-size="10.00">scheduler</text>
</g>
</g>
</svg>
