<?xml version="1.0" encoding="UTF-8" standalone="no"?>
<!DOCTYPE svg PUBLIC "-//W3C//DTD SVG 1.1//EN"
 "http://www.w3.org/Graphics/SVG/1.1/DTD/svg11.dtd">
<!-- Generated by graphviz version 2.43.0 (0)
 -->
<!-- Title: discord_resolved_data Pages: 1 -->
<svg width="368pt" height="218pt"
 viewBox="0.00 0.00 368.00 218.00" xmlns="http://www.w3.org/2000/svg" xmlns:xlink="http://www.w3.org/1999/xlink">
<g id="graph0" class="graph" transform="scale(1 1) rotate(0) translate(4 214)">
<title>discord_resolved_data</title>
<!-- Node1 -->
<g id="node1" class="node">
<title>Node1</title>
<g id="a_node1"><a xlink:title=" ">
<polygon fill="#bfbfbf" stroke="black" points="234,-95.5 234,-114.5 360,-114.5 360,-95.5 234,-95.5"/>
<text text-anchor="middle" x="297" y="-102.5" font-family="Helvetica,sans-Serif" font-size="10.00">discord_resolved_data</text>
</a>
</g>
</g>
<!-- Node2 -->
<g id="node2" class="node">
<title>Node2</title>
<g id="a_node2"><a xlink:href="structdiscord__users.html" target="_top" xlink:title=" ">
<polygon fill="none" stroke="red" points="25,-190.5 25,-209.5 108,-209.5 108,-190.5 25,-190.5"/>
<text text-anchor="middle" x="66.5" y="-197.5" font-family="Helvetica,sans-Serif" font-size="10.00">discord_users</text>
</a>
</g>
</g>
<!-- Node2&#45;&gt;Node1 -->
<g id="edge1" class="edge">
<title>Node2&#45;&gt;Node1</title>
<path fill="none" stroke="#9a32cd" stroke-dasharray="5,2" d="M118.28,-191.31C147.7,-185.15 184.95,-175.38 216,-161 242.92,-148.53 270.42,-126.94 285.13,-114.53"/>
<polygon fill="#9a32cd" stroke="#9a32cd" points="117.33,-187.93 108.22,-193.34 118.72,-194.79 117.33,-187.93"/>
<text text-anchor="middle" x="183.5" y="-186" font-family="Helvetica,sans-Serif" font-size="10.00"> users</text>
</g>
<!-- Node4 -->
<g id="node3" class="node">
<title>Node4</title>
<g id="a_node3"><a xlink:href="structdiscord__guild__members.html" target="_top" xlink:title=" ">
<polygon fill="none" stroke="red" points="0,-152.5 0,-171.5 133,-171.5 133,-152.5 0,-152.5"/>
<text text-anchor="middle" x="66.5" y="-159.5" font-family="Helvetica,sans-Serif" font-size="10.00">discord_guild_members</text>
</a>
</g>
</g>
<!-- Node4&#45;&gt;Node1 -->
<g id="edge2" class="edge">
<title>Node4&#45;&gt;Node1</title>
<path fill="none" stroke="#9a32cd" stroke-dasharray="5,2" d="M130.02,-150.51C156.68,-145.21 188.02,-138.45 216,-131 233.92,-126.23 253.75,-119.8 269.18,-114.52"/>
<polygon fill="#9a32cd" stroke="#9a32cd" points="129.19,-147.11 120.06,-152.47 130.54,-153.98 129.19,-147.11"/>
<text text-anchor="middle" x="183.5" y="-149" font-family="Helvetica,sans-Serif" font-size="10.00"> members</text>
</g>
<!-- Node7 -->
<g id="node4" class="node">
<title>Node7</title>
<g id="a_node4"><a xlink:href="structdiscord__roles.html" target="_top" xlink:title=" ">
<polygon fill="none" stroke="red" points="26,-114.5 26,-133.5 107,-133.5 107,-114.5 26,-114.5"/>
<text text-anchor="middle" x="66.5" y="-121.5" font-family="Helvetica,sans-Serif" font-size="10.00">discord_roles</text>
</a>
</g>
</g>
<!-- Node7&#45;&gt;Node1 -->
<g id="edge3" class="edge">
<title>Node7&#45;&gt;Node1</title>
<path fill="none" stroke="#9a32cd" stroke-dasharray="5,2" d="M117.26,-119.86C151.45,-117.02 197.11,-113.22 233.71,-110.18"/>
<polygon fill="#9a32cd" stroke="#9a32cd" points="116.72,-116.4 107.04,-120.71 117.3,-123.37 116.72,-116.4"/>
<text text-anchor="middle" x="183.5" y="-119" font-family="Helvetica,sans-Serif" font-size="10.00"> roles</text>
</g>
<!-- Node10 -->
<g id="node5" class="node">
<title>Node10</title>
<g id="a_node5"><a xlink:href="structdiscord__channels.html" target="_top" xlink:title=" ">
<polygon fill="none" stroke="red" points="16,-76.5 16,-95.5 117,-95.5 117,-76.5 16,-76.5"/>
<text text-anchor="middle" x="66.5" y="-83.5" font-family="Helvetica,sans-Serif" font-size="10.00">discord_channels</text>
</a>
</g>
</g>
<!-- Node10&#45;&gt;Node1 -->
<g id="edge4" class="edge">
<title>Node10&#45;&gt;Node1</title>
<path fill="none" stroke="#9a32cd" stroke-dasharray="5,2" d="M127.16,-89.41C154.29,-91.11 186.79,-93.37 216,-96 221.71,-96.51 227.64,-97.09 233.58,-97.7"/>
<polygon fill="#9a32cd" stroke="#9a32cd" points="127.24,-85.9 117.04,-88.78 126.81,-92.89 127.24,-85.9"/>
<text text-anchor="middle" x="183.5" y="-99" font-family="Helvetica,sans-Serif" font-size="10.00"> channels</text>
</g>
<!-- Node16 -->
<g id="node6" class="node">
<title>Node16</title>
<g id="a_node6"><a xlink:href="structdiscord__messages.html" target="_top" xlink:title=" ">
<polygon fill="none" stroke="red" points="13,-38.5 13,-57.5 120,-57.5 120,-38.5 13,-38.5"/>
<text text-anchor="middle" x="66.5" y="-45.5" font-family="Helvetica,sans-Serif" font-size="10.00">discord_messages</text>
</a>
</g>
</g>
<!-- Node16&#45;&gt;Node1 -->
<g id="edge5" class="edge">
<title>Node16&#45;&gt;Node1</title>
<path fill="none" stroke="#9a32cd" stroke-dasharray="5,2" d="M130.18,-57.51C156.86,-62.15 188.18,-68.39 216,-76 235.52,-81.34 257.06,-89.27 272.87,-95.49"/>
<polygon fill="#9a32cd" stroke="#9a32cd" points="130.65,-54.04 120.2,-55.81 129.47,-60.94 130.65,-54.04"/>
<text text-anchor="middle" x="183.5" y="-79" font-family="Helvetica,sans-Serif" font-size="10.00"> messages</text>
</g>
<!-- Node18 -->
<g id="node7" class="node">
<title>Node18</title>
<g id="a_node7"><a xlink:href="structdiscord__attachments.html" target="_top" xlink:title=" ">
<polygon fill="none" stroke="red" points="7,-0.5 7,-19.5 126,-19.5 126,-0.5 7,-0.5"/>
<text text-anchor="middle" x="66.5" y="-7.5" font-family="Helvetica,sans-Serif" font-size="10.00">discord_attachments</text>
</a>
</g>
</g>
<!-- Node18&#45;&gt;Node1 -->
<g id="edge6" class="edge">
<title>Node18&#45;&gt;Node1</title>
<path fill="none" stroke="#9a32cd" stroke-dasharray="5,2" d="M136.15,-20.71C161.95,-26.25 191.06,-34.36 216,-46 243.52,-58.84 271.01,-81.91 285.51,-95.08"/>
<polygon fill="#9a32cd" stroke="#9a32cd" points="136.56,-17.22 126.06,-18.63 135.15,-24.08 136.56,-17.22"/>
<text text-anchor="middle" x="183.5" y="-49" font-family="Helvetica,sans-Serif" font-size="10.00"> attachments</text>
</g>
</g>
</svg>
