<?xml version="1.0" encoding="UTF-8" standalone="no"?>
<!DOCTYPE svg PUBLIC "-//W3C//DTD SVG 1.1//EN"
 "http://www.w3.org/Graphics/SVG/1.1/DTD/svg11.dtd">
<!-- Generated by graphviz version 2.43.0 (0)
 -->
<!-- Title: discord Pages: 1 -->
<svg width="307pt" height="186pt"
 viewBox="0.00 0.00 307.00 186.00" xmlns="http://www.w3.org/2000/svg" xmlns:xlink="http://www.w3.org/1999/xlink">
<g id="graph0" class="graph" transform="scale(1 1) rotate(0) translate(4 182)">
<title>discord</title>
<!-- Node1 -->
<g id="node1" class="node">
<title>Node1</title>
<g id="a_node1"><a xlink:title="The Discord client handler.">
<polygon fill="#bfbfbf" stroke="black" points="126.5,-74 126.5,-93 178.5,-93 178.5,-74 126.5,-74"/>
<text text-anchor="middle" x="152.5" y="-81" font-family="Helvetica,sans-Serif" font-size="10.00">discord</text>
</a>
</g>
</g>
<!-- Node1&#45;&gt;Node1 -->
<g id="edge6" class="edge">
<title>Node1&#45;&gt;Node1</title>
<path fill="none" stroke="#9a32cd" stroke-dasharray="5,2" d="M188.97,-90.02C193.52,-88.86 196.5,-86.69 196.5,-83.5 196.5,-78.27 188.46,-75.77 178.7,-76.02"/>
<polygon fill="#9a32cd" stroke="#9a32cd" points="188.33,-86.56 178.7,-90.98 188.98,-93.53 188.33,-86.56"/>
<text text-anchor="middle" x="218" y="-92" font-family="Helvetica,sans-Serif" font-size="10.00"> cb</text>
<text text-anchor="middle" x="218" y="-81" font-family="Helvetica,sans-Serif" font-size="10.00">on_cycle</text>
<text text-anchor="middle" x="218" y="-70" font-family="Helvetica,sans-Serif" font-size="10.00">on_idle</text>
</g>
<!-- Node5 -->
<g id="node3" class="node">
<title>Node5</title>
<g id="a_node3"><a xlink:href="structdiscord__gateway.html" target="_top" xlink:title="The handle used for establishing a WebSockets connection.">
<polygon fill="none" stroke="red" points="103,-0.5 103,-19.5 202,-19.5 202,-0.5 103,-0.5"/>
<text text-anchor="middle" x="152.5" y="-7.5" font-family="Helvetica,sans-Serif" font-size="10.00">discord_gateway</text>
</a>
</g>
</g>
<!-- Node1&#45;&gt;Node5 -->
<g id="edge3" class="edge">
<title>Node1&#45;&gt;Node5</title>
<path fill="none" stroke="#9a32cd" stroke-dasharray="5,2" d="M126.82,-68.34C115.7,-60.22 106.44,-49.4 112.5,-38 116.75,-30.01 124.53,-23.96 132.11,-19.63"/>
<polygon fill="#9a32cd" stroke="#9a32cd" points="125.19,-71.45 135.48,-73.98 129.01,-65.59 125.19,-71.45"/>
<text text-anchor="middle" x="138" y="-41" font-family="Helvetica,sans-Serif" font-size="10.00"> scheduler</text>
</g>
<!-- Node2 -->
<g id="node2" class="node">
<title>Node2</title>
<g id="a_node2"><a xlink:href="structdiscord__adapter.html" target="_top" xlink:title="The handle used for performing HTTP Requests.">
<polygon fill="none" stroke="red" points="0,-158.5 0,-177.5 95,-177.5 95,-158.5 0,-158.5"/>
<text text-anchor="middle" x="47.5" y="-165.5" font-family="Helvetica,sans-Serif" font-size="10.00">discord_adapter</text>
</a>
</g>
</g>
<!-- Node2&#45;&gt;Node1 -->
<g id="edge1" class="edge">
<title>Node2&#45;&gt;Node1</title>
<path fill="none" stroke="#9a32cd" stroke-dasharray="5,2" d="M65.82,-151.68C77.62,-141.91 93.33,-129.05 107.5,-118 118.56,-109.37 131.42,-99.85 140.55,-93.17"/>
<polygon fill="#9a32cd" stroke="#9a32cd" points="63.46,-149.1 58.01,-158.18 67.93,-154.48 63.46,-149.1"/>
<text text-anchor="middle" x="128" y="-126.5" font-family="Helvetica,sans-Serif" font-size="10.00"> adapter</text>
</g>
<!-- Node5&#45;&gt;Node1 -->
<g id="edge2" class="edge">
<title>Node5&#45;&gt;Node1</title>
<path fill="none" stroke="#9a32cd" stroke-dasharray="5,2" d="M163.85,-28.47C165.36,-31.54 166.67,-34.78 167.5,-38 170.77,-50.63 164.09,-64.85 158.63,-73.75"/>
<polygon fill="#9a32cd" stroke="#9a32cd" points="166.72,-26.45 158.71,-19.52 160.65,-29.93 166.72,-26.45"/>
<text text-anchor="middle" x="176.5" y="-41" font-family="Helvetica,sans-Serif" font-size="10.00"> gw</text>
</g>
<!-- Node23 -->
<g id="node4" class="node">
<title>Node23</title>
<g id="a_node4"><a xlink:href="structdiscord__user.html" target="_top" xlink:title=" ">
<polygon fill="none" stroke="black" points="113.5,-158.5 113.5,-177.5 191.5,-177.5 191.5,-158.5 113.5,-158.5"/>
<text text-anchor="middle" x="152.5" y="-165.5" font-family="Helvetica,sans-Serif" font-size="10.00">discord_user</text>
</a>
</g>
</g>
<!-- Node23&#45;&gt;Node1 -->
<g id="edge4" class="edge">
<title>Node23&#45;&gt;Node1</title>
<path fill="none" stroke="#9a32cd" stroke-dasharray="5,2" d="M152.5,-148.43C152.5,-131.13 152.5,-106.11 152.5,-93.1"/>
<polygon fill="#9a32cd" stroke="#9a32cd" points="149,-148.48 152.5,-158.48 156,-148.48 149,-148.48"/>
<text text-anchor="middle" x="163.5" y="-126.5" font-family="Helvetica,sans-Serif" font-size="10.00"> self</text>
</g>
<!-- Node24 -->
<g id="node5" class="node">
<title>Node24</title>
<g id="a_node5"><a xlink:href="structdiscord__timers.html" target="_top" xlink:title=" ">
<polygon fill="none" stroke="#bfbfbf" points="210,-158.5 210,-177.5 299,-177.5 299,-158.5 210,-158.5"/>
<text text-anchor="middle" x="254.5" y="-165.5" font-family="Helvetica,sans-Serif" font-size="10.00">discord_timers</text>
</a>
</g>
</g>
<!-- Node24&#45;&gt;Node1 -->
<g id="edge5" class="edge">
<title>Node24&#45;&gt;Node1</title>
<path fill="none" stroke="#9a32cd" stroke-dasharray="5,2" d="M235.97,-152.01C214.65,-134.77 180.37,-107.04 163.13,-93.1"/>
<polygon fill="#9a32cd" stroke="#9a32cd" points="233.99,-154.91 243.97,-158.48 238.39,-149.47 233.99,-154.91"/>
<text text-anchor="middle" x="239" y="-132" font-family="Helvetica,sans-Serif" font-size="10.00"> internal</text>
<text text-anchor="middle" x="239" y="-121" font-family="Helvetica,sans-Serif" font-size="10.00">user</text>
</g>
</g>
</svg>
