<?xml version="1.0" encoding="UTF-8" standalone="no"?>
<!DOCTYPE svg PUBLIC "-//W3C//DTD SVG 1.1//EN"
 "http://www.w3.org/Graphics/SVG/1.1/DTD/svg11.dtd">
<!-- Generated by graphviz version 2.43.0 (0)
 -->
<!-- Title: discord_message_commands Pages: 1 -->
<svg width="169pt" height="162pt"
 viewBox="0.00 0.00 169.00 162.00" xmlns="http://www.w3.org/2000/svg" xmlns:xlink="http://www.w3.org/1999/xlink">
<g id="graph0" class="graph" transform="scale(1 1) rotate(0) translate(4 158)">
<title>discord_message_commands</title>
<!-- Node1 -->
<g id="node1" class="node">
<title>Node1</title>
<g id="a_node1"><a xlink:title="The handle for storing user&#39;s message commands.">
<polygon fill="#bfbfbf" stroke="black" points="0,-67.5 0,-86.5 161,-86.5 161,-67.5 0,-67.5"/>
<text text-anchor="middle" x="80.5" y="-74.5" font-family="Helvetica,sans-Serif" font-size="10.00">discord_message_commands</text>
</a>
</g>
</g>
<!-- Node3 -->
<g id="node3" class="node">
<title>Node3</title>
<g id="a_node3"><a xlink:href="structdiscord.html" target="_top" xlink:title="The Discord client handler.">
<polygon fill="none" stroke="red" points="54.5,-0.5 54.5,-19.5 106.5,-19.5 106.5,-0.5 54.5,-0.5"/>
<text text-anchor="middle" x="80.5" y="-7.5" font-family="Helvetica,sans-Serif" font-size="10.00">discord</text>
</a>
</g>
</g>
<!-- Node1&#45;&gt;Node3 -->
<g id="edge3" class="edge">
<title>Node1&#45;&gt;Node3</title>
<path fill="none" stroke="#9a32cd" stroke-dasharray="5,2" d="M49.66,-62.18C44.78,-58.6 40.4,-54.24 37.5,-49 30.65,-36.62 44.63,-26.28 58.44,-19.53"/>
<polygon fill="#9a32cd" stroke="#9a32cd" points="47.83,-65.16 58.17,-67.48 51.53,-59.22 47.83,-65.16"/>
<text text-anchor="middle" x="66.5" y="-41" font-family="Helvetica,sans-Serif" font-size="10.00"> commands</text>
</g>
<!-- Node2 -->
<g id="node2" class="node">
<title>Node2</title>
<g id="a_node2"><a xlink:href="structccord__szbuf.html" target="_top" xlink:title="Generic sized buffer.">
<polygon fill="none" stroke="black" points="43.5,-134.5 43.5,-153.5 117.5,-153.5 117.5,-134.5 43.5,-134.5"/>
<text text-anchor="middle" x="80.5" y="-141.5" font-family="Helvetica,sans-Serif" font-size="10.00">ccord_szbuf</text>
</a>
</g>
</g>
<!-- Node2&#45;&gt;Node1 -->
<g id="edge1" class="edge">
<title>Node2&#45;&gt;Node1</title>
<path fill="none" stroke="#9a32cd" stroke-dasharray="5,2" d="M80.5,-124.04C80.5,-111.67 80.5,-96.12 80.5,-86.63"/>
<polygon fill="#9a32cd" stroke="#9a32cd" points="77,-124.23 80.5,-134.23 84,-124.23 77,-124.23"/>
<text text-anchor="middle" x="96" y="-108" font-family="Helvetica,sans-Serif" font-size="10.00"> prefix</text>
</g>
<!-- Node3&#45;&gt;Node1 -->
<g id="edge2" class="edge">
<title>Node3&#45;&gt;Node1</title>
<path fill="none" stroke="#9a32cd" stroke-dasharray="5,2" d="M95.46,-28.15C99.28,-34.52 101.74,-41.91 99.5,-49 97.35,-55.78 92.83,-62.32 88.73,-67.27"/>
<polygon fill="#9a32cd" stroke="#9a32cd" points="98.02,-25.73 89.29,-19.72 92.37,-29.86 98.02,-25.73"/>
<text text-anchor="middle" x="121" y="-41" font-family="Helvetica,sans-Serif" font-size="10.00"> fallback</text>
</g>
</g>
</svg>
