<?xml version="1.0" encoding="UTF-8" standalone="no"?>
<!DOCTYPE svg PUBLIC "-//W3C//DTD SVG 1.1//EN"
 "http://www.w3.org/Graphics/SVG/1.1/DTD/svg11.dtd">
<!-- Generated by graphviz version 2.43.0 (0)
 -->
<!-- Title: core/types.h Pages: 1 -->
<svg width="3135pt" height="95pt"
 viewBox="0.00 0.00 3135.00 95.00" xmlns="http://www.w3.org/2000/svg" xmlns:xlink="http://www.w3.org/1999/xlink">
<g id="graph0" class="graph" transform="scale(1 1) rotate(0) translate(4 91)">
<title>core/types.h</title>
<!-- Node1 -->
<g id="node1" class="node">
<title>Node1</title>
<g id="a_node1"><a xlink:title=" ">
<polygon fill="#bfbfbf" stroke="black" points="1522,-67.5 1522,-86.5 1599,-86.5 1599,-67.5 1522,-67.5"/>
<text text-anchor="middle" x="1560.5" y="-74.5" font-family="Helvetica,sans-Serif" font-size="10.00">core/types.h</text>
</a>
</g>
</g>
<!-- Node2 -->
<g id="node2" class="node">
<title>Node2</title>
<g id="a_node2"><a xlink:href="application_8h.html" target="_top" xlink:title="Generated code.">
<polygon fill="none" stroke="black" points="0,-6 0,-25 123,-25 123,-6 0,-6"/>
<text text-anchor="middle" x="61.5" y="-13" font-family="Helvetica,sans-Serif" font-size="10.00">docs/api/application.h</text>
</a>
</g>
</g>
<!-- Node1&#45;&gt;Node2 -->
<g id="edge1" class="edge">
<title>Node1&#45;&gt;Node2</title>
<path fill="none" stroke="midnightblue" d="M1511.59,-75.58C1293.48,-73.51 408.22,-63.26 132.5,-31 121,-29.65 108.6,-27.4 97.43,-25.07"/>
<polygon fill="midnightblue" stroke="midnightblue" points="1511.73,-79.08 1521.76,-75.67 1511.8,-72.08 1511.73,-79.08"/>
</g>
<!-- Node3 -->
<g id="node3" class="node">
<title>Node3</title>
<g id="a_node3"><a xlink:href="application__commands_8h.html" target="_top" xlink:title="Generated code.">
<polygon fill="none" stroke="black" points="141.5,-0.5 141.5,-30.5 255.5,-30.5 255.5,-0.5 141.5,-0.5"/>
<text text-anchor="start" x="149.5" y="-18.5" font-family="Helvetica,sans-Serif" font-size="10.00">docs/api/application</text>
<text text-anchor="middle" x="198.5" y="-7.5" font-family="Helvetica,sans-Serif" font-size="10.00">_commands.h</text>
</a>
</g>
</g>
<!-- Node1&#45;&gt;Node3 -->
<g id="edge2" class="edge">
<title>Node1&#45;&gt;Node3</title>
<path fill="none" stroke="midnightblue" d="M1511.83,-75.49C1306.83,-73.17 512.73,-62.31 264.5,-31 261.59,-30.63 258.62,-30.2 255.63,-29.72"/>
<polygon fill="midnightblue" stroke="midnightblue" points="1511.95,-78.99 1521.99,-75.61 1512.03,-71.99 1511.95,-78.99"/>
</g>
<!-- Node4 -->
<g id="node4" class="node">
<title>Node4</title>
<g id="a_node4"><a xlink:href="docs_2api_2audit__log_8h.html" target="_top" xlink:title="Generated code.">
<polygon fill="none" stroke="black" points="273.5,-6 273.5,-25 387.5,-25 387.5,-6 273.5,-6"/>
<text text-anchor="middle" x="330.5" y="-13" font-family="Helvetica,sans-Serif" font-size="10.00">docs/api/audit_log.h</text>
</a>
</g>
</g>
<!-- Node1&#45;&gt;Node4 -->
<g id="edge3" class="edge">
<title>Node1&#45;&gt;Node4</title>
<path fill="none" stroke="midnightblue" d="M1511.85,-75.27C1320.25,-72.22 617.48,-59.32 396.5,-31 385.79,-29.63 374.26,-27.37 363.87,-25.04"/>
<polygon fill="midnightblue" stroke="midnightblue" points="1511.85,-78.77 1521.9,-75.43 1511.96,-71.77 1511.85,-78.77"/>
</g>
<!-- Node5 -->
<g id="node5" class="node">
<title>Node5</title>
<g id="a_node5"><a xlink:href="docs_2api_2auto__moderation_8h.html" target="_top" xlink:title="Generated code.">
<polygon fill="none" stroke="black" points="405.5,-6 405.5,-25 557.5,-25 557.5,-6 405.5,-6"/>
<text text-anchor="middle" x="481.5" y="-13" font-family="Helvetica,sans-Serif" font-size="10.00">docs/api/auto_moderation.h</text>
</a>
</g>
</g>
<!-- Node1&#45;&gt;Node5 -->
<g id="edge4" class="edge">
<title>Node1&#45;&gt;Node5</title>
<path fill="none" stroke="midnightblue" d="M1511.69,-75.92C1367.01,-75.24 928.02,-69.87 566.5,-31 553.1,-29.56 538.62,-27.34 525.47,-25.07"/>
<polygon fill="midnightblue" stroke="midnightblue" points="1511.98,-79.43 1521.99,-75.97 1512.01,-72.43 1511.98,-79.43"/>
</g>
<!-- Node6 -->
<g id="node6" class="node">
<title>Node6</title>
<g id="a_node6"><a xlink:href="docs_2api_2channel_8h.html" target="_top" xlink:title="Generated code.">
<polygon fill="none" stroke="black" points="576,-6 576,-25 683,-25 683,-6 576,-6"/>
<text text-anchor="middle" x="629.5" y="-13" font-family="Helvetica,sans-Serif" font-size="10.00">docs/api/channel.h</text>
</a>
</g>
</g>
<!-- Node1&#45;&gt;Node6 -->
<g id="edge5" class="edge">
<title>Node1&#45;&gt;Node6</title>
<path fill="none" stroke="midnightblue" d="M1511.48,-76.51C1378.71,-77.22 1001.33,-74.9 691.5,-31 681.54,-29.59 670.83,-27.35 661.15,-25.05"/>
<polygon fill="midnightblue" stroke="midnightblue" points="1511.74,-80 1521.72,-76.44 1511.7,-73 1511.74,-80"/>
</g>
<!-- Node7 -->
<g id="node7" class="node">
<title>Node7</title>
<g id="a_node7"><a xlink:href="custom_8h.html" target="_top" xlink:title="Generated code.">
<polygon fill="none" stroke="black" points="701,-6 701,-25 806,-25 806,-6 701,-6"/>
<text text-anchor="middle" x="753.5" y="-13" font-family="Helvetica,sans-Serif" font-size="10.00">docs/api/custom.h</text>
</a>
</g>
</g>
<!-- Node1&#45;&gt;Node7 -->
<g id="edge6" class="edge">
<title>Node1&#45;&gt;Node7</title>
<path fill="none" stroke="midnightblue" d="M1511.53,-75.97C1391.84,-75.26 1075.21,-69.55 814.5,-31 804.7,-29.55 794.16,-27.3 784.64,-25"/>
<polygon fill="midnightblue" stroke="midnightblue" points="1511.8,-79.47 1521.82,-76.02 1511.84,-72.47 1511.8,-79.47"/>
</g>
<!-- Node8 -->
<g id="node8" class="node">
<title>Node8</title>
<g id="a_node8"><a xlink:href="docs_2api_2emoji_8h.html" target="_top" xlink:title="Generated code.">
<polygon fill="none" stroke="black" points="824,-6 824,-25 921,-25 921,-6 824,-6"/>
<text text-anchor="middle" x="872.5" y="-13" font-family="Helvetica,sans-Serif" font-size="10.00">docs/api/emoji.h</text>
</a>
</g>
</g>
<!-- Node1&#45;&gt;Node8 -->
<g id="edge7" class="edge">
<title>Node1&#45;&gt;Node8</title>
<path fill="none" stroke="midnightblue" d="M1511.79,-75.39C1405.55,-73.45 1145.33,-65.26 930.5,-31 921.28,-29.53 911.37,-27.3 902.4,-25.03"/>
<polygon fill="midnightblue" stroke="midnightblue" points="1511.82,-78.9 1521.88,-75.57 1511.94,-71.9 1511.82,-78.9"/>
</g>
<!-- Node9 -->
<g id="node9" class="node">
<title>Node9</title>
<g id="a_node9"><a xlink:href="docs_2api_2gateway_8h.html" target="_top" xlink:title="Generated code.">
<polygon fill="none" stroke="black" points="939.5,-6 939.5,-25 1049.5,-25 1049.5,-6 939.5,-6"/>
<text text-anchor="middle" x="994.5" y="-13" font-family="Helvetica,sans-Serif" font-size="10.00">docs/api/gateway.h</text>
</a>
</g>
</g>
<!-- Node1&#45;&gt;Node9 -->
<g id="edge8" class="edge">
<title>Node1&#45;&gt;Node9</title>
<path fill="none" stroke="midnightblue" d="M1511.69,-73.79C1421.66,-69.24 1223.55,-56.98 1058.5,-31 1048.6,-29.44 1037.94,-27.24 1028.22,-25.02"/>
<polygon fill="midnightblue" stroke="midnightblue" points="1511.71,-77.3 1521.87,-74.3 1512.05,-70.3 1511.71,-77.3"/>
</g>
<!-- Node10 -->
<g id="node10" class="node">
<title>Node10</title>
<g id="a_node10"><a xlink:href="docs_2api_2guild_8h.html" target="_top" xlink:title="Generated code.">
<polygon fill="none" stroke="black" points="1068,-6 1068,-25 1161,-25 1161,-6 1068,-6"/>
<text text-anchor="middle" x="1114.5" y="-13" font-family="Helvetica,sans-Serif" font-size="10.00">docs/api/guild.h</text>
</a>
</g>
</g>
<!-- Node1&#45;&gt;Node10 -->
<g id="edge9" class="edge">
<title>Node1&#45;&gt;Node10</title>
<path fill="none" stroke="midnightblue" d="M1511.94,-72.66C1437.69,-67.04 1291.67,-54.01 1169.5,-31 1161.06,-29.41 1152,-27.23 1143.72,-25.04"/>
<polygon fill="midnightblue" stroke="midnightblue" points="1511.7,-76.15 1521.93,-73.4 1512.22,-69.17 1511.7,-76.15"/>
</g>
<!-- Node11 -->
<g id="node11" class="node">
<title>Node11</title>
<g id="a_node11"><a xlink:href="docs_2api_2guild__scheduled__event_8h.html" target="_top" xlink:title="Generated code.">
<polygon fill="none" stroke="black" points="1179,-0.5 1179,-30.5 1318,-30.5 1318,-0.5 1179,-0.5"/>
<text text-anchor="start" x="1187" y="-18.5" font-family="Helvetica,sans-Serif" font-size="10.00">docs/api/guild_scheduled</text>
<text text-anchor="middle" x="1248.5" y="-7.5" font-family="Helvetica,sans-Serif" font-size="10.00">_event.h</text>
</a>
</g>
</g>
<!-- Node1&#45;&gt;Node11 -->
<g id="edge10" class="edge">
<title>Node1&#45;&gt;Node11</title>
<path fill="none" stroke="midnightblue" d="M1511.96,-66.74C1459.98,-56.83 1377.02,-41.01 1318.09,-29.77"/>
<polygon fill="midnightblue" stroke="midnightblue" points="1511.45,-70.21 1521.93,-68.64 1512.76,-63.33 1511.45,-70.21"/>
</g>
<!-- Node12 -->
<g id="node12" class="node">
<title>Node12</title>
<g id="a_node12"><a xlink:href="docs_2api_2guild__template_8h.html" target="_top" xlink:title="Generated code.">
<polygon fill="none" stroke="black" points="1336,-6 1336,-25 1479,-25 1479,-6 1336,-6"/>
<text text-anchor="middle" x="1407.5" y="-13" font-family="Helvetica,sans-Serif" font-size="10.00">docs/api/guild_template.h</text>
</a>
</g>
</g>
<!-- Node1&#45;&gt;Node12 -->
<g id="edge11" class="edge">
<title>Node1&#45;&gt;Node12</title>
<path fill="none" stroke="midnightblue" d="M1529.08,-63.78C1499.35,-52.22 1455.49,-35.16 1429.38,-25.01"/>
<polygon fill="midnightblue" stroke="midnightblue" points="1527.99,-67.11 1538.58,-67.48 1530.53,-60.59 1527.99,-67.11"/>
</g>
<!-- Node13 -->
<g id="node13" class="node">
<title>Node13</title>
<g id="a_node13"><a xlink:href="interactions_8h.html" target="_top" xlink:title="Generated code.">
<polygon fill="none" stroke="black" points="1497,-6 1497,-25 1624,-25 1624,-6 1497,-6"/>
<text text-anchor="middle" x="1560.5" y="-13" font-family="Helvetica,sans-Serif" font-size="10.00">docs/api/interactions.h</text>
</a>
</g>
</g>
<!-- Node1&#45;&gt;Node13 -->
<g id="edge12" class="edge">
<title>Node1&#45;&gt;Node13</title>
<path fill="none" stroke="midnightblue" d="M1560.5,-57.32C1560.5,-46.5 1560.5,-33.4 1560.5,-25.01"/>
<polygon fill="midnightblue" stroke="midnightblue" points="1557,-57.48 1560.5,-67.48 1564,-57.48 1557,-57.48"/>
</g>
<!-- Node14 -->
<g id="node14" class="node">
<title>Node14</title>
<g id="a_node14"><a xlink:href="docs_2api_2invite_8h.html" target="_top" xlink:title="Generated code.">
<polygon fill="none" stroke="black" points="1642,-6 1642,-25 1739,-25 1739,-6 1642,-6"/>
<text text-anchor="middle" x="1690.5" y="-13" font-family="Helvetica,sans-Serif" font-size="10.00">docs/api/invite.h</text>
</a>
</g>
</g>
<!-- Node1&#45;&gt;Node14 -->
<g id="edge13" class="edge">
<title>Node1&#45;&gt;Node14</title>
<path fill="none" stroke="midnightblue" d="M1588.52,-63.17C1613.75,-51.63 1650.11,-34.99 1671.91,-25.01"/>
<polygon fill="midnightblue" stroke="midnightblue" points="1586.76,-60.13 1579.13,-67.48 1589.68,-66.5 1586.76,-60.13"/>
</g>
<!-- Node15 -->
<g id="node15" class="node">
<title>Node15</title>
<g id="a_node15"><a xlink:href="message__components_8h.html" target="_top" xlink:title="Generated code.">
<polygon fill="none" stroke="black" points="1757,-6 1757,-25 1936,-25 1936,-6 1757,-6"/>
<text text-anchor="middle" x="1846.5" y="-13" font-family="Helvetica,sans-Serif" font-size="10.00">docs/api/message_components.h</text>
</a>
</g>
</g>
<!-- Node1&#45;&gt;Node15 -->
<g id="edge14" class="edge">
<title>Node1&#45;&gt;Node15</title>
<path fill="none" stroke="midnightblue" d="M1608.96,-65.92C1664.14,-54.44 1753.35,-35.88 1805.31,-25.07"/>
<polygon fill="midnightblue" stroke="midnightblue" points="1608.15,-62.51 1599.07,-67.98 1609.57,-69.37 1608.15,-62.51"/>
</g>
<!-- Node16 -->
<g id="node16" class="node">
<title>Node16</title>
<g id="a_node16"><a xlink:href="permissions_8h.html" target="_top" xlink:title="Generated code.">
<polygon fill="none" stroke="black" points="1954.5,-6 1954.5,-25 2082.5,-25 2082.5,-6 1954.5,-6"/>
<text text-anchor="middle" x="2018.5" y="-13" font-family="Helvetica,sans-Serif" font-size="10.00">docs/api/permissions.h</text>
</a>
</g>
</g>
<!-- Node1&#45;&gt;Node16 -->
<g id="edge15" class="edge">
<title>Node1&#45;&gt;Node16</title>
<path fill="none" stroke="midnightblue" d="M1609.47,-71.54C1682.77,-64.58 1825.27,-49.94 1945.5,-31 1956.22,-29.31 1967.77,-27.17 1978.44,-25.05"/>
<polygon fill="midnightblue" stroke="midnightblue" points="1608.79,-68.09 1599.16,-72.51 1609.45,-75.06 1608.79,-68.09"/>
</g>
<!-- Node17 -->
<g id="node17" class="node">
<title>Node17</title>
<g id="a_node17"><a xlink:href="stage__instance_8h.html" target="_top" xlink:title="Generated code.">
<polygon fill="none" stroke="black" points="2101,-6 2101,-25 2244,-25 2244,-6 2101,-6"/>
<text text-anchor="middle" x="2172.5" y="-13" font-family="Helvetica,sans-Serif" font-size="10.00">docs/api/stage_instance.h</text>
</a>
</g>
</g>
<!-- Node1&#45;&gt;Node17 -->
<g id="edge16" class="edge">
<title>Node1&#45;&gt;Node17</title>
<path fill="none" stroke="midnightblue" d="M1609.31,-73.38C1703.06,-68.01 1914.67,-54.27 2091.5,-31 2103.68,-29.4 2116.82,-27.23 2128.9,-25.07"/>
<polygon fill="midnightblue" stroke="midnightblue" points="1609.06,-69.89 1599.28,-73.95 1609.46,-76.88 1609.06,-69.89"/>
</g>
<!-- Node18 -->
<g id="node18" class="node">
<title>Node18</title>
<g id="a_node18"><a xlink:href="sticker_8h.html" target="_top" xlink:title="Generated code.">
<polygon fill="none" stroke="black" points="2262,-6 2262,-25 2363,-25 2363,-6 2262,-6"/>
<text text-anchor="middle" x="2312.5" y="-13" font-family="Helvetica,sans-Serif" font-size="10.00">docs/api/sticker.h</text>
</a>
</g>
</g>
<!-- Node1&#45;&gt;Node18 -->
<g id="edge17" class="edge">
<title>Node1&#45;&gt;Node18</title>
<path fill="none" stroke="midnightblue" d="M1609.18,-75.78C1722.74,-74.62 2013.73,-67.95 2253.5,-31 2262.88,-29.55 2272.96,-27.33 2282.08,-25.06"/>
<polygon fill="midnightblue" stroke="midnightblue" points="1609.04,-72.28 1599.07,-75.87 1609.1,-79.28 1609.04,-72.28"/>
</g>
<!-- Node19 -->
<g id="node19" class="node">
<title>Node19</title>
<g id="a_node19"><a xlink:href="teams_8h.html" target="_top" xlink:title="Generated code.">
<polygon fill="none" stroke="black" points="2381.5,-6 2381.5,-25 2481.5,-25 2481.5,-6 2381.5,-6"/>
<text text-anchor="middle" x="2431.5" y="-13" font-family="Helvetica,sans-Serif" font-size="10.00">docs/api/teams.h</text>
</a>
</g>
</g>
<!-- Node1&#45;&gt;Node19 -->
<g id="edge18" class="edge">
<title>Node1&#45;&gt;Node19</title>
<path fill="none" stroke="midnightblue" d="M1609.38,-76.44C1736.14,-76.9 2085.57,-73.83 2372.5,-31 2381.99,-29.58 2392.19,-27.34 2401.4,-25.04"/>
<polygon fill="midnightblue" stroke="midnightblue" points="1609.24,-72.94 1599.22,-76.39 1609.2,-79.94 1609.24,-72.94"/>
</g>
<!-- Node20 -->
<g id="node20" class="node">
<title>Node20</title>
<g id="a_node20"><a xlink:href="docs_2api_2user_8h.html" target="_top" xlink:title="Generated code.">
<polygon fill="none" stroke="black" points="2500,-6 2500,-25 2589,-25 2589,-6 2500,-6"/>
<text text-anchor="middle" x="2544.5" y="-13" font-family="Helvetica,sans-Serif" font-size="10.00">docs/api/user.h</text>
</a>
</g>
</g>
<!-- Node1&#45;&gt;Node20 -->
<g id="edge19" class="edge">
<title>Node1&#45;&gt;Node20</title>
<path fill="none" stroke="midnightblue" d="M1609.43,-75.01C1775.71,-71.45 2318.21,-57.98 2490.5,-31 2499.32,-29.62 2508.78,-27.36 2517.27,-25.03"/>
<polygon fill="midnightblue" stroke="midnightblue" points="1608.96,-71.52 1599.03,-75.23 1609.11,-78.52 1608.96,-71.52"/>
</g>
<!-- Node21 -->
<g id="node21" class="node">
<title>Node21</title>
<g id="a_node21"><a xlink:href="docs_2api_2voice_8h.html" target="_top" xlink:title="Generated code.">
<polygon fill="none" stroke="black" points="2607,-6 2607,-25 2702,-25 2702,-6 2607,-6"/>
<text text-anchor="middle" x="2654.5" y="-13" font-family="Helvetica,sans-Serif" font-size="10.00">docs/api/voice.h</text>
</a>
</g>
</g>
<!-- Node1&#45;&gt;Node21 -->
<g id="edge20" class="edge">
<title>Node1&#45;&gt;Node21</title>
<path fill="none" stroke="midnightblue" d="M1609.39,-75.24C1787.88,-72.26 2404.02,-60.06 2598.5,-31 2607.64,-29.63 2617.44,-27.38 2626.25,-25.05"/>
<polygon fill="midnightblue" stroke="midnightblue" points="1609.19,-71.74 1599.25,-75.41 1609.31,-78.74 1609.19,-71.74"/>
</g>
<!-- Node22 -->
<g id="node22" class="node">
<title>Node22</title>
<g id="a_node22"><a xlink:href="voice__connections_8h.html" target="_top" xlink:title="Generated code.">
<polygon fill="none" stroke="black" points="2720,-6 2720,-25 2879,-25 2879,-6 2720,-6"/>
<text text-anchor="middle" x="2799.5" y="-13" font-family="Helvetica,sans-Serif" font-size="10.00">docs/api/voice_connections.h</text>
</a>
</g>
</g>
<!-- Node1&#45;&gt;Node22 -->
<g id="edge21" class="edge">
<title>Node1&#45;&gt;Node22</title>
<path fill="none" stroke="midnightblue" d="M1609.53,-76.26C1768.87,-76.62 2286.3,-74.17 2711.5,-31 2725.52,-29.58 2740.69,-27.33 2754.42,-25.03"/>
<polygon fill="midnightblue" stroke="midnightblue" points="1609.13,-72.76 1599.12,-76.23 1609.11,-79.76 1609.13,-72.76"/>
</g>
<!-- Node23 -->
<g id="node23" class="node">
<title>Node23</title>
<g id="a_node23"><a xlink:href="docs_2api_2webhook_8h.html" target="_top" xlink:title="Generated code.">
<polygon fill="none" stroke="black" points="2897,-6 2897,-25 3010,-25 3010,-6 2897,-6"/>
<text text-anchor="middle" x="2953.5" y="-13" font-family="Helvetica,sans-Serif" font-size="10.00">docs/api/webhook.h</text>
</a>
</g>
</g>
<!-- Node1&#45;&gt;Node23 -->
<g id="edge22" class="edge">
<title>Node1&#45;&gt;Node23</title>
<path fill="none" stroke="midnightblue" d="M1609.02,-75.56C1816.93,-73.5 2633.64,-63.46 2888.5,-31 2899.05,-29.66 2910.41,-27.41 2920.64,-25.07"/>
<polygon fill="midnightblue" stroke="midnightblue" points="1608.98,-72.06 1599.02,-75.66 1609.05,-79.06 1608.98,-72.06"/>
</g>
<!-- Node24 -->
<g id="node24" class="node">
<title>Node24</title>
<g id="a_node24"><a xlink:href="discord_8h.html" target="_top" xlink:title="Public functions and datatypes.">
<polygon fill="none" stroke="black" points="3028,-6 3028,-25 3127,-25 3127,-6 3028,-6"/>
<text text-anchor="middle" x="3077.5" y="-13" font-family="Helvetica,sans-Serif" font-size="10.00">include/discord.h</text>
</a>
</g>
</g>
<!-- Node1&#45;&gt;Node24 -->
<g id="edge23" class="edge">
<title>Node1&#45;&gt;Node24</title>
<path fill="none" stroke="midnightblue" d="M1609.41,-75.9C1830.52,-75.22 2738.11,-70.05 3019.5,-31 3029.06,-29.67 3039.33,-27.4 3048.53,-25.04"/>
<polygon fill="midnightblue" stroke="midnightblue" points="1609.09,-72.4 1599.1,-75.93 1609.11,-79.4 1609.09,-72.4"/>
</g>
</g>
</svg>
