<?xml version="1.0" encoding="UTF-8" standalone="no"?>
<!DOCTYPE svg PUBLIC "-//W3C//DTD SVG 1.1//EN"
 "http://www.w3.org/Graphics/SVG/1.1/DTD/svg11.dtd">
<!-- Generated by graphviz version 2.43.0 (0)
 -->
<!-- Title: include/discord&#45;templates.h Pages: 1 -->
<svg width="1317pt" height="95pt"
 viewBox="0.00 0.00 1316.50 95.00" xmlns="http://www.w3.org/2000/svg" xmlns:xlink="http://www.w3.org/1999/xlink">
<g id="graph0" class="graph" transform="scale(1 1) rotate(0) translate(4 91)">
<title>include/discord&#45;templates.h</title>
<!-- Node1 -->
<g id="node1" class="node">
<title>Node1</title>
<g id="a_node1"><a xlink:title="Macro template for generating type&#45;safe return handles for async requests.">
<polygon fill="#bfbfbf" stroke="black" points="583.5,-67.5 583.5,-86.5 735.5,-86.5 735.5,-67.5 583.5,-67.5"/>
<text text-anchor="middle" x="659.5" y="-74.5" font-family="Helvetica,sans-Serif" font-size="10.00">include/discord&#45;templates.h</text>
</a>
</g>
</g>
<!-- Node2 -->
<g id="node2" class="node">
<title>Node2</title>
<g id="a_node2"><a xlink:href="../../d3/d1c/application__command_8h.html" target="_top" xlink:title="Application Command public functions and datatypes.">
<polygon fill="none" stroke="red" points="0,-0.5 0,-30.5 109,-30.5 109,-0.5 0,-0.5"/>
<text text-anchor="start" x="8" y="-18.5" font-family="Helvetica,sans-Serif" font-size="10.00">include/application</text>
<text text-anchor="middle" x="54.5" y="-7.5" font-family="Helvetica,sans-Serif" font-size="10.00">_command.h</text>
</a>
</g>
</g>
<!-- Node1&#45;&gt;Node2 -->
<g id="edge1" class="edge">
<title>Node1&#45;&gt;Node2</title>
<path fill="none" stroke="midnightblue" d="M573.11,-72.65C465.77,-67.61 277.25,-55.88 117.5,-31 114.73,-30.57 111.9,-30.08 109.04,-29.56"/>
<polygon fill="midnightblue" stroke="midnightblue" points="573.09,-76.15 583.24,-73.12 573.41,-69.16 573.09,-76.15"/>
</g>
<!-- Node4 -->
<g id="node3" class="node">
<title>Node4</title>
<g id="a_node3"><a xlink:href="../../d3/d30/include_2audit__log_8h.html" target="_top" xlink:title="Audit Log public functions and datatypes.">
<polygon fill="none" stroke="red" points="127,-6 127,-25 236,-25 236,-6 127,-6"/>
<text text-anchor="middle" x="181.5" y="-13" font-family="Helvetica,sans-Serif" font-size="10.00">include/audit_log.h</text>
</a>
</g>
</g>
<!-- Node1&#45;&gt;Node4 -->
<g id="edge2" class="edge">
<title>Node1&#45;&gt;Node4</title>
<path fill="none" stroke="midnightblue" d="M573.21,-69.52C489.19,-62.53 358.05,-49.8 245.5,-31 235.84,-29.39 225.44,-27.22 215.9,-25.05"/>
<polygon fill="midnightblue" stroke="midnightblue" points="572.96,-73.01 583.22,-70.34 573.54,-66.03 572.96,-73.01"/>
</g>
<!-- Node5 -->
<g id="node4" class="node">
<title>Node5</title>
<g id="a_node4"><a xlink:href="../../dc/df8/include_2channel_8h.html" target="_top" xlink:title="Channel public functions and datatypes.">
<polygon fill="none" stroke="red" points="254.5,-6 254.5,-25 356.5,-25 356.5,-6 254.5,-6"/>
<text text-anchor="middle" x="305.5" y="-13" font-family="Helvetica,sans-Serif" font-size="10.00">include/channel.h</text>
</a>
</g>
</g>
<!-- Node1&#45;&gt;Node5 -->
<g id="edge3" class="edge">
<title>Node1&#45;&gt;Node5</title>
<path fill="none" stroke="midnightblue" d="M582.88,-66.1C523.37,-57.96 438.89,-45.46 365.5,-31 356.77,-29.28 347.4,-27.15 338.71,-25.06"/>
<polygon fill="midnightblue" stroke="midnightblue" points="582.58,-69.59 592.96,-67.46 583.52,-62.65 582.58,-69.59"/>
</g>
<!-- Node6 -->
<g id="node5" class="node">
<title>Node6</title>
<g id="a_node5"><a xlink:href="../../d9/de7/include_2emoji_8h.html" target="_top" xlink:title="Emoji public functions and datatypes.">
<polygon fill="none" stroke="red" points="374.5,-6 374.5,-25 466.5,-25 466.5,-6 374.5,-6"/>
<text text-anchor="middle" x="420.5" y="-13" font-family="Helvetica,sans-Serif" font-size="10.00">include/emoji.h</text>
</a>
</g>
</g>
<!-- Node1&#45;&gt;Node6 -->
<g id="edge4" class="edge">
<title>Node1&#45;&gt;Node6</title>
<path fill="none" stroke="midnightblue" d="M613.79,-65.06C576.52,-56.09 522.55,-42.95 475.5,-31 468.03,-29.1 460.01,-27.02 452.47,-25.03"/>
<polygon fill="midnightblue" stroke="midnightblue" points="613.29,-68.54 623.84,-67.48 614.93,-61.74 613.29,-68.54"/>
</g>
<!-- Node7 -->
<g id="node6" class="node">
<title>Node7</title>
<g id="a_node6"><a xlink:href="../../dd/d16/include_2guild_8h.html" target="_top" xlink:title="Guild public functions and datatypes.">
<polygon fill="none" stroke="red" points="484.5,-6 484.5,-25 572.5,-25 572.5,-6 484.5,-6"/>
<text text-anchor="middle" x="528.5" y="-13" font-family="Helvetica,sans-Serif" font-size="10.00">include/guild.h</text>
</a>
</g>
</g>
<!-- Node1&#45;&gt;Node7 -->
<g id="edge5" class="edge">
<title>Node1&#45;&gt;Node7</title>
<path fill="none" stroke="midnightblue" d="M631.6,-63.33C606.17,-51.78 569.3,-35.03 547.23,-25.01"/>
<polygon fill="midnightblue" stroke="midnightblue" points="630.18,-66.53 640.73,-67.48 633.07,-60.15 630.18,-66.53"/>
</g>
<!-- Node8 -->
<g id="node7" class="node">
<title>Node8</title>
<g id="a_node7"><a xlink:href="../../d2/d27/include_2guild__template_8h.html" target="_top" xlink:title="Guild Template public functions and datatypes.">
<polygon fill="none" stroke="red" points="591,-6 591,-25 728,-25 728,-6 591,-6"/>
<text text-anchor="middle" x="659.5" y="-13" font-family="Helvetica,sans-Serif" font-size="10.00">include/guild_template.h</text>
</a>
</g>
</g>
<!-- Node1&#45;&gt;Node8 -->
<g id="edge6" class="edge">
<title>Node1&#45;&gt;Node8</title>
<path fill="none" stroke="midnightblue" d="M659.5,-57.32C659.5,-46.5 659.5,-33.4 659.5,-25.01"/>
<polygon fill="midnightblue" stroke="midnightblue" points="656,-57.48 659.5,-67.48 663,-57.48 656,-57.48"/>
</g>
<!-- Node9 -->
<g id="node8" class="node">
<title>Node9</title>
<g id="a_node8"><a xlink:href="../../da/d85/interaction_8h.html" target="_top" xlink:title="Interaciton public functions and datatypes.">
<polygon fill="none" stroke="red" points="746.5,-6 746.5,-25 862.5,-25 862.5,-6 746.5,-6"/>
<text text-anchor="middle" x="804.5" y="-13" font-family="Helvetica,sans-Serif" font-size="10.00">include/interaction.h</text>
</a>
</g>
</g>
<!-- Node1&#45;&gt;Node9 -->
<g id="edge7" class="edge">
<title>Node1&#45;&gt;Node9</title>
<path fill="none" stroke="midnightblue" d="M689.64,-63.63C717.81,-52.07 759.12,-35.12 783.76,-25.01"/>
<polygon fill="midnightblue" stroke="midnightblue" points="688.2,-60.44 680.27,-67.48 690.86,-66.92 688.2,-60.44"/>
</g>
<!-- Node10 -->
<g id="node9" class="node">
<title>Node10</title>
<g id="a_node9"><a xlink:href="../../de/d7e/include_2invite_8h.html" target="_top" xlink:title="Invite public functions and datatypes.">
<polygon fill="none" stroke="red" points="880.5,-6 880.5,-25 972.5,-25 972.5,-6 880.5,-6"/>
<text text-anchor="middle" x="926.5" y="-13" font-family="Helvetica,sans-Serif" font-size="10.00">include/invite.h</text>
</a>
</g>
</g>
<!-- Node1&#45;&gt;Node10 -->
<g id="edge8" class="edge">
<title>Node1&#45;&gt;Node10</title>
<path fill="none" stroke="midnightblue" d="M712.63,-65.47C755.61,-56.77 817.62,-43.81 871.5,-31 879.19,-29.17 887.44,-27.07 895.15,-25.05"/>
<polygon fill="midnightblue" stroke="midnightblue" points="711.79,-62.07 702.68,-67.48 713.17,-68.93 711.79,-62.07"/>
</g>
<!-- Node11 -->
<g id="node10" class="node">
<title>Node11</title>
<g id="a_node10"><a xlink:href="../../df/df5/include_2user_8h.html" target="_top" xlink:title="User public functions and datatypes.">
<polygon fill="none" stroke="red" points="990.5,-6 990.5,-25 1074.5,-25 1074.5,-6 990.5,-6"/>
<text text-anchor="middle" x="1032.5" y="-13" font-family="Helvetica,sans-Serif" font-size="10.00">include/user.h</text>
</a>
</g>
</g>
<!-- Node1&#45;&gt;Node11 -->
<g id="edge9" class="edge">
<title>Node1&#45;&gt;Node11</title>
<path fill="none" stroke="midnightblue" d="M746.03,-67.19C811.18,-59.77 902.47,-47.67 981.5,-31 989.25,-29.37 997.54,-27.19 1005.15,-25.03"/>
<polygon fill="midnightblue" stroke="midnightblue" points="745.35,-63.75 735.81,-68.34 746.14,-70.7 745.35,-63.75"/>
</g>
<!-- Node12 -->
<g id="node11" class="node">
<title>Node12</title>
<g id="a_node11"><a xlink:href="../../dc/dd9/include_2voice_8h.html" target="_top" xlink:title="Voice public functions and datatypes.">
<polygon fill="none" stroke="red" points="1092.5,-6 1092.5,-25 1182.5,-25 1182.5,-6 1092.5,-6"/>
<text text-anchor="middle" x="1137.5" y="-13" font-family="Helvetica,sans-Serif" font-size="10.00">include/voice.h</text>
</a>
</g>
</g>
<!-- Node1&#45;&gt;Node12 -->
<g id="edge10" class="edge">
<title>Node1&#45;&gt;Node12</title>
<path fill="none" stroke="midnightblue" d="M745.83,-70.81C831.92,-64.71 967.65,-52.57 1083.5,-31 1091.9,-29.44 1100.9,-27.23 1109.11,-25.02"/>
<polygon fill="midnightblue" stroke="midnightblue" points="745.58,-67.32 735.85,-71.51 746.06,-74.31 745.58,-67.32"/>
</g>
<!-- Node13 -->
<g id="node12" class="node">
<title>Node13</title>
<g id="a_node12"><a xlink:href="../../d5/d89/include_2webhook_8h.html" target="_top" xlink:title="Webhook public functions and datatypes.">
<polygon fill="none" stroke="red" points="1200.5,-6 1200.5,-25 1308.5,-25 1308.5,-6 1200.5,-6"/>
<text text-anchor="middle" x="1254.5" y="-13" font-family="Helvetica,sans-Serif" font-size="10.00">include/webhook.h</text>
</a>
</g>
</g>
<!-- Node1&#45;&gt;Node13 -->
<g id="edge11" class="edge">
<title>Node1&#45;&gt;Node13</title>
<path fill="none" stroke="midnightblue" d="M745.96,-72.46C851.59,-67.27 1035.52,-55.42 1191.5,-31 1201.26,-29.47 1211.75,-27.28 1221.32,-25.06"/>
<polygon fill="midnightblue" stroke="midnightblue" points="745.49,-68.98 735.67,-72.96 745.83,-75.97 745.49,-68.98"/>
</g>
</g>
</svg>
