<?xml version="1.0" encoding="UTF-8" standalone="no"?>
<!DOCTYPE svg PUBLIC "-//W3C//DTD SVG 1.1//EN"
 "http://www.w3.org/Graphics/SVG/1.1/DTD/svg11.dtd">
<!-- Generated by graphviz version 2.43.0 (0)
 -->
<!-- Title: API Pages: 1 -->
<svg width="185pt" height="397pt"
 viewBox="0.00 0.00 185.00 397.00" xmlns="http://www.w3.org/2000/svg" xmlns:xlink="http://www.w3.org/1999/xlink">
<g id="graph0" class="graph" transform="scale(1 1) rotate(0) translate(4 393)">
<title>API</title>
<!-- Node1 -->
<g id="node1" class="node">
<title>Node1</title>
<g id="a_node1"><a xlink:title="The Discord public API supported by Concord.">
<polygon fill="#bfbfbf" stroke="black" points="32,-204 0,-204 0,-185 32,-185 32,-204"/>
<text text-anchor="middle" x="16" y="-192" font-family="Helvetica,sans-Serif" font-size="10.00">API</text>
</a>
</g>
</g>
<!-- Node2 -->
<g id="node2" class="node">
<title>Node2</title>
<g id="a_node2"><a xlink:href="../../d8/d90/group__DiscordAPIAuditLog.html" target="_top" xlink:title="Audit Log&#39;s public API supported by Concord.">
<polygon fill="none" stroke="black" points="163,-389 82,-389 82,-370 163,-370 163,-389"/>
<text text-anchor="middle" x="122.5" y="-377" font-family="Helvetica,sans-Serif" font-size="10.00">Audit Log API</text>
</a>
</g>
</g>
<!-- Node1&#45;&gt;Node2 -->
<g id="edge1" class="edge">
<title>Node1&#45;&gt;Node2</title>
<path fill="none" stroke="black" d="M17.45,-214.57C19.33,-249.22 28.13,-320.49 68,-361.5 71.89,-365.51 76.71,-368.62 81.83,-371.04"/>
<polygon fill="black" stroke="black" points="20.94,-214.17 17.05,-204.32 13.95,-214.45 20.94,-214.17"/>
</g>
<!-- Node3 -->
<g id="node3" class="node">
<title>Node3</title>
<g id="a_node3"><a xlink:href="../../df/d2c/group__DiscordAPIChannel.html" target="_top" xlink:title="Channel&#39;s public API supported by Concord.">
<polygon fill="none" stroke="black" points="160,-352 85,-352 85,-333 160,-333 160,-352"/>
<text text-anchor="middle" x="122.5" y="-340" font-family="Helvetica,sans-Serif" font-size="10.00">Channel API</text>
</a>
</g>
</g>
<!-- Node1&#45;&gt;Node3 -->
<g id="edge2" class="edge">
<title>Node1&#45;&gt;Node3</title>
<path fill="none" stroke="black" d="M19.51,-214.45C24.12,-242.77 36.51,-294.53 68,-324.5 72.76,-329.03 78.69,-332.42 84.85,-334.96"/>
<polygon fill="black" stroke="black" points="22.92,-213.59 18.02,-204.19 16,-214.59 22.92,-213.59"/>
</g>
<!-- Node5 -->
<g id="node4" class="node">
<title>Node5</title>
<g id="a_node4"><a xlink:href="../../d2/d6a/group__DiscordAPIEmoji.html" target="_top" xlink:title="Emoji&#39;s public API supported by Concord.">
<polygon fill="none" stroke="black" points="154,-315 91,-315 91,-296 154,-296 154,-315"/>
<text text-anchor="middle" x="122.5" y="-303" font-family="Helvetica,sans-Serif" font-size="10.00">Emoji API</text>
</a>
</g>
</g>
<!-- Node1&#45;&gt;Node5 -->
<g id="edge4" class="edge">
<title>Node1&#45;&gt;Node5</title>
<path fill="none" stroke="black" d="M22.89,-213.93C30.21,-234.92 44.67,-267.98 68,-287.5 74.54,-292.97 82.81,-296.8 90.89,-299.48"/>
<polygon fill="black" stroke="black" points="26.14,-212.6 19.7,-204.19 19.49,-214.78 26.14,-212.6"/>
</g>
<!-- Node6 -->
<g id="node5" class="node">
<title>Node6</title>
<g id="a_node5"><a xlink:href="../../d4/d2b/group__DiscordAPIGateway.html" target="_top" xlink:title="Gateway&#39;s public API supported by Concord.">
<polygon fill="none" stroke="black" points="162,-278 83,-278 83,-259 162,-259 162,-278"/>
<text text-anchor="middle" x="122.5" y="-266" font-family="Helvetica,sans-Serif" font-size="10.00">Gateway API</text>
</a>
</g>
</g>
<!-- Node1&#45;&gt;Node6 -->
<g id="edge5" class="edge">
<title>Node1&#45;&gt;Node6</title>
<path fill="none" stroke="black" d="M29.43,-212.37C38.77,-224.63 52.58,-240.44 68,-250.5 73.17,-253.87 79.04,-256.68 84.94,-258.99"/>
<polygon fill="black" stroke="black" points="32.18,-210.21 23.45,-204.21 26.53,-214.34 32.18,-210.21"/>
</g>
<!-- Node7 -->
<g id="node6" class="node">
<title>Node7</title>
<g id="a_node6"><a xlink:href="../../d3/d9f/group__DiscordAPIGuild.html" target="_top" xlink:title="Guild&#39;s public API supported by Concord.">
<polygon fill="none" stroke="black" points="153,-241 92,-241 92,-222 153,-222 153,-241"/>
<text text-anchor="middle" x="122.5" y="-229" font-family="Helvetica,sans-Serif" font-size="10.00">Guild API</text>
</a>
</g>
</g>
<!-- Node1&#45;&gt;Node7 -->
<g id="edge6" class="edge">
<title>Node1&#45;&gt;Node7</title>
<path fill="none" stroke="black" d="M41.67,-203.87C50.01,-206.99 59.39,-210.45 68,-213.5 75.94,-216.32 84.59,-219.27 92.57,-221.95"/>
<polygon fill="black" stroke="black" points="42.72,-200.53 32.13,-200.28 40.25,-207.08 42.72,-200.53"/>
</g>
<!-- Node8 -->
<g id="node7" class="node">
<title>Node8</title>
<g id="a_node7"><a xlink:href="../../d0/d17/group__DiscordAPIGuildTemplate.html" target="_top" xlink:title="Guild Template&#39;s public API supported by Concord.">
<polygon fill="none" stroke="black" points="177,-204 68,-204 68,-185 177,-185 177,-204"/>
<text text-anchor="middle" x="122.5" y="-192" font-family="Helvetica,sans-Serif" font-size="10.00">Guild Template API</text>
</a>
</g>
</g>
<!-- Node1&#45;&gt;Node8 -->
<g id="edge7" class="edge">
<title>Node1&#45;&gt;Node8</title>
<path fill="none" stroke="black" d="M42.5,-194.5C50.21,-194.5 58.99,-194.5 67.82,-194.5"/>
<polygon fill="black" stroke="black" points="42.42,-191 32.42,-194.5 42.42,-198 42.42,-191"/>
</g>
<!-- Node4 -->
<g id="node8" class="node">
<title>Node4</title>
<g id="a_node8"><a xlink:href="../../d9/ddc/group__DiscordAPIInteractions.html" target="_top" xlink:title="Interactions public API supported by Concord.">
<polygon fill="none" stroke="black" points="169,-167 76,-167 76,-148 169,-148 169,-167"/>
<text text-anchor="middle" x="122.5" y="-155" font-family="Helvetica,sans-Serif" font-size="10.00">Interactions API</text>
</a>
</g>
</g>
<!-- Node1&#45;&gt;Node4 -->
<g id="edge3" class="edge">
<title>Node1&#45;&gt;Node4</title>
<path fill="none" stroke="black" d="M42.09,-185.62C57.96,-180 78.46,-172.74 94.66,-167"/>
<polygon fill="black" stroke="black" points="40.68,-182.4 32.42,-189.04 43.01,-189 40.68,-182.4"/>
</g>
<!-- Node9 -->
<g id="node9" class="node">
<title>Node9</title>
<g id="a_node9"><a xlink:href="../../d6/da0/group__DiscordAPIInvite.html" target="_top" xlink:title="Invite&#39;s public API supported by Concord.">
<polygon fill="none" stroke="black" points="154,-130 91,-130 91,-111 154,-111 154,-130"/>
<text text-anchor="middle" x="122.5" y="-118" font-family="Helvetica,sans-Serif" font-size="10.00">Invite API</text>
</a>
</g>
</g>
<!-- Node1&#45;&gt;Node9 -->
<g id="edge8" class="edge">
<title>Node1&#45;&gt;Node9</title>
<path fill="none" stroke="black" d="M29.87,-176.62C39.26,-164.68 52.95,-149.41 68,-139.5 74.92,-134.95 83.05,-131.34 90.87,-128.54"/>
<polygon fill="black" stroke="black" points="27.07,-174.51 23.83,-184.6 32.65,-178.74 27.07,-174.51"/>
</g>
<!-- Node10 -->
<g id="node10" class="node">
<title>Node10</title>
<g id="a_node10"><a xlink:href="../../d2/dae/group__DiscordAPIUser.html" target="_top" xlink:title="User&#39;s public API supported by Concord.">
<polygon fill="none" stroke="black" points="151.5,-93 93.5,-93 93.5,-74 151.5,-74 151.5,-93"/>
<text text-anchor="middle" x="122.5" y="-81" font-family="Helvetica,sans-Serif" font-size="10.00">User API</text>
</a>
</g>
</g>
<!-- Node1&#45;&gt;Node10 -->
<g id="edge9" class="edge">
<title>Node1&#45;&gt;Node10</title>
<path fill="none" stroke="black" d="M23.01,-175.35C30.43,-154.65 44.98,-122 68,-102.5 75.22,-96.38 84.55,-92.18 93.39,-89.32"/>
<polygon fill="black" stroke="black" points="19.65,-174.36 19.77,-184.96 26.28,-176.6 19.65,-174.36"/>
</g>
<!-- Node11 -->
<g id="node11" class="node">
<title>Node11</title>
<g id="a_node11"><a xlink:href="../../d0/d64/group__DiscordAPIVoice.html" target="_top" xlink:title="Voice&#39;s public API supported by Concord.">
<polygon fill="none" stroke="black" points="153.5,-56 91.5,-56 91.5,-37 153.5,-37 153.5,-56"/>
<text text-anchor="middle" x="122.5" y="-44" font-family="Helvetica,sans-Serif" font-size="10.00">Voice API</text>
</a>
</g>
</g>
<!-- Node1&#45;&gt;Node11 -->
<g id="edge10" class="edge">
<title>Node1&#45;&gt;Node11</title>
<path fill="none" stroke="black" d="M19.63,-174.77C24.37,-146.75 36.93,-95.49 68,-65.5 74.38,-59.34 82.89,-55.16 91.24,-52.33"/>
<polygon fill="black" stroke="black" points="16.13,-174.51 18.08,-184.92 23.05,-175.56 16.13,-174.51"/>
</g>
<!-- Node12 -->
<g id="node12" class="node">
<title>Node12</title>
<g id="a_node12"><a xlink:href="../../d9/d55/group__DiscordAPIWebhook.html" target="_top" xlink:title="Webhook&#39;s public API supported by Concord.">
<polygon fill="none" stroke="black" points="162.5,-19 82.5,-19 82.5,0 162.5,0 162.5,-19"/>
<text text-anchor="middle" x="122.5" y="-7" font-family="Helvetica,sans-Serif" font-size="10.00">Webhook API</text>
</a>
</g>
</g>
<!-- Node1&#45;&gt;Node12 -->
<g id="edge11" class="edge">
<title>Node1&#45;&gt;Node12</title>
<path fill="none" stroke="black" d="M17.56,-174.62C19.6,-140.27 28.66,-69.58 68,-28.5 72.02,-24.3 77.03,-21.03 82.36,-18.48"/>
<polygon fill="black" stroke="black" points="14.06,-174.63 17.11,-184.78 21.05,-174.94 14.06,-174.63"/>
</g>
</g>
</svg>
